<?xml version="1.0" encoding="UTF-8" standalone="no"?><!DOCTYPE svg PUBLIC "-//W3C//DTD SVG 1.0//EN" "http://www.w3.org/TR/2001/REC-SVG-20010904/DTD/svg10.dtd" [ <!ATTLIST svg xmlns:xlink CDATA #FIXED "http://www.w3.org/1999/xlink">]><!-- Generated by dot version 2.7.20051103.0540 (Thu Nov  3 05:48:38 UTC 2005)     For user: Bill Gates --><!-- Title: uml Pages: 1 --><svg width="1038pt" height="758pt" viewBox = "0 0 1038 758" xmlns="http://www.w3.org/2000/svg" xmlns:xlink="http://www.w3.org/1999/xlink"><g id="graph0" class="graph" style="font-family:Times-Roman;font-size:14.00;"><title>uml</title><polygon style="fill:white;stroke:white;" points="-1,759 -1,-1 1039,-1 1039,759 -1,759"/><!-- 1688724592 --><g id="node1" class="node"><title>1688724592</title><a xlink:href="platform%3A%2Fresource%2FRepository%2Fmgiml%2Fmgiml.uml%23_Ra98ydc2EeGqj6dbAaQw_w" xlink:title="Material"><polygon style="fill:#e0ffff;stroke:#a30036;stroke-dasharray:5,2;" points="107,715 53,715 53,741 107,741 107,715"/><text text-anchor="middle" x="80" y="732" style="font-family:Arial;font-size:11.00;">Material</text></a></g><!-- 681218845 --><g id="node2" class="node"><title>681218845</title><a xlink:href="platform%3A%2Fresource%2FRepository%2Fmgiml%2Fmgiml.uml%23_Ra32Idc2EeGqj6dbAaQw_w" xlink:title="Quantity"><polygon style="fill:#e0ffff;stroke:#a30036;stroke-dasharray:5,2;" points="383,605 327,605 327,631 383,631 383,605"/><text text-anchor="middle" x="355" y="622" style="font-family:Arial;font-size:11.00;">Quantity</text></a></g><!-- 1637226623 --><g id="node3" class="node"><title>1637226623</title><a xlink:href="platform%3A%2Fresource%2FRepository%2Fmgiml%2Fmgiml.uml%23_R50tUOL6EeG2hPSuOHxJCg" xlink:title="File"><polygon style="fill:#e0ffff;stroke:#a30036;stroke-dasharray:5,2;" points="723,151 691,151 691,177 723,177 723,151"/><text text-anchor="middle" x="707" y="168" style="font-family:Arial;font-size:11.00;">File</text></a></g><!-- 2125519725 --><g id="node4" class="node"><title>2125519725</title><polygon style="fill:#ffffcc;stroke:#ffffcc;" points="440,55 440,5 532,5 532,55 440,55"/><a xlink:href="platform%3A%2Fresource%2FRepository%2Fmgiml%2Fmgiml.uml%23_Ra5ERtc2EeGqj6dbAaQw_w" xlink:title="Experiment"><clipPath id="mypathfile:/C:/Program%20Files/Eclipse_indigo/configuration/org.eclipse.osgi/bundles/953/1/.cp/icons/full/obj16/Class.gif2125519725"><polygon points="457,8 441,8 441,25 457,25 457,8 "/></clipPath><image xlink:href="file:/C:/Program%20Files/Eclipse_indigo/configuration/org.eclipse.osgi/bundles/953/1/.cp/icons/full/obj16/Class.gif" width="16px" height="17px" preserveAspectRatio="xMidYMid meet" x="441" y="8" clip-path="url(#mypathfile:/C:/Program%20Files/Eclipse_indigo/configuration/org.eclipse.osgi/bundles/953/1/.cp/icons/full/obj16/Class.gif2125519725)"/><text text-anchor="middle" x="494" y="21" style="font-family:Arial;font-size:13.00;">Experiment</text><text text-anchor="middle" x="486" y="36" style="font-family:Arial;font-size:10.00;">(from mgiml)</text><polygon style="fill:none;stroke:#a30036;" points="440,40 440,5 532,5 532,40 440,40"/></a><a xlink:href="platform%3A%2Fresource%2FRepository%2Fmgiml%2Fmgiml.uml%23_OKL8wNv9EeGylJ60vDoYdA" xlink:title="id"><text text-anchor="middle" x="469" y="51" style="font-family:Arial;font-size:11.00;">id : integer</text></a><polygon style="fill:none;stroke:#a30036;" points="440,55 440,40 532,40 532,55 440,55"/></g><!-- 2125519725&#45;&gt;681218845 --><g id="edge14" class="edge"><title>2125519725&#45;&gt;681218845</title><a xlink:href="platform%3A%2Fresource%2FRepository%2Fmgiml%2Fmgiml.uml%23_RbC1Qtc2EeGqj6dbAaQw_w" xlink:title="temperature\n1..1"><path style="fill:none;stroke:#a30036;" d="M428,40C406,46 384,56 368,73 297,150 319,196 304,299 301,327 302,334 304,361 307,384 338,535 350,594"/><polygon style="fill:#a30036;stroke:#a30036;" points="428,40 435,42 440,37 433,35 428,40"/><polygon style="fill:#a30036;stroke:#a30036;" points="352,604 354,593 351,601 350,594 351,601 346,595 352,604 352,604"/><text text-anchor="middle" x="335" y="327" style="font-family:Arial;font-size:10.00;">temperature</text><text text-anchor="middle" x="335" y="339" style="font-family:Arial;font-size:10.00;">1..1</text></a></g><!-- 2125519725&#45;&gt;681218845 --><g id="edge16" class="edge"><title>2125519725&#45;&gt;681218845</title><a xlink:href="platform%3A%2Fresource%2FRepository%2Fmgiml%2Fmgiml.uml%23_RbC1R9c2EeGqj6dbAaQw_w" xlink:title="pressure\n1..1"><path style="fill:none;stroke:#a30036;" d="M441,63C413,87 382,124 382,164 382,164 382,164 382,490 382,528 371,569 363,594"/><polygon style="fill:#a30036;stroke:#a30036;" points="441,63 448,62 450,55 443,56 441,63"/><polygon style="fill:#a30036;stroke:#a30036;" points="360,604 367,596 361,601 363,594 361,601 359,593 360,604 360,604"/><text text-anchor="middle" x="402" y="327" style="font-family:Arial;font-size:10.00;">pressure</text><text text-anchor="middle" x="402" y="339" style="font-family:Arial;font-size:10.00;">1..1</text></a></g><!-- 2125519725&#45;&gt;681218845 --><g id="edge18" class="edge"><title>2125519725&#45;&gt;681218845</title><a xlink:href="platform%3A%2Fresource%2FRepository%2Fmgiml%2Fmgiml.uml%23_RbC1TNc2EeGqj6dbAaQw_w" xlink:title="duration\n1..1"><path style="fill:none;stroke:#a30036;" d="M474,67C466,94 458,131 457,164 457,164 457,164 457,490 458,536 416,576 386,598"/><polygon style="fill:#a30036;stroke:#a30036;" points="474,66 480,62 478,55 472,59 474,66"/><polygon style="fill:#a30036;stroke:#a30036;" points="377,604 388,602 379,602 385,598 379,602 383,595 377,604 377,604"/><text text-anchor="middle" x="476" y="327" style="font-family:Arial;font-size:10.00;">duration</text><text text-anchor="middle" x="476" y="339" style="font-family:Arial;font-size:10.00;">1..1</text></a></g><!-- 2125519725&#45;&gt;1637226623 --><g id="edge22" class="edge"><title>2125519725&#45;&gt;1637226623</title><a xlink:href="platform%3A%2Fresource%2FRepository%2Fmgiml%2Fmgiml.uml%23_TDD_QO4cEeGxRLjtgHY5Yw" xlink:title="files\n0..*"><path style="fill:none;stroke:#a30036;" d="M532,35C582,42 656,54 677,73 696,91 703,120 705,140"/><polygon style="fill:#a30036;stroke:#a30036;" points="706,150 709,140 706,147 705,140 706,147 701,140 706,150 706,150"/><text text-anchor="middle" x="701" y="82" style="font-family:Arial;font-size:10.00;">files</text><text text-anchor="middle" x="701" y="94" style="font-family:Arial;font-size:10.00;">0..*</text></a></g><!-- 160099750 --><g id="node5" class="node"><title>160099750</title><polygon style="fill:#ffffcc;stroke:#ffffcc;" points="741,189 741,139 861,139 861,189 741,189"/><a xlink:href="platform%3A%2Fresource%2FRepository%2Fmgiml%2Fmgiml.uml%23_S1WEUNv9EeGylJ60vDoYdA" xlink:title="ExperimentType"><clipPath id="mypathfile:/C:/Program%20Files/Eclipse_indigo/configuration/org.eclipse.osgi/bundles/953/1/.cp/icons/full/obj16/Class.gif160099750"><polygon points="758,142 742,142 742,159 758,159 758,142 "/></clipPath><image xlink:href="file:/C:/Program%20Files/Eclipse_indigo/configuration/org.eclipse.osgi/bundles/953/1/.cp/icons/full/obj16/Class.gif" width="16px" height="17px" preserveAspectRatio="xMidYMid meet" x="742" y="142" clip-path="url(#mypathfile:/C:/Program%20Files/Eclipse_indigo/configuration/org.eclipse.osgi/bundles/953/1/.cp/icons/full/obj16/Class.gif160099750)"/><text text-anchor="middle" x="809" y="155" style="font-family:Arial;font-size:13.00;">ExperimentType</text><text text-anchor="middle" x="801" y="170" style="font-family:Arial;font-size:10.00;">(from mgiml)</text><polygon style="fill:none;stroke:#a30036;" points="741,174 741,139 861,139 861,174 741,174"/></a><a xlink:href="platform%3A%2Fresource%2FRepository%2Fmgiml%2Fmgiml.uml%23_Uu6OANv9EeGylJ60vDoYdA" xlink:title="name"><text text-anchor="middle" x="776" y="185" style="font-family:Arial;font-size:11.00;">name : string</text></a><polygon style="fill:none;stroke:#a30036;" points="741,189 741,174 861,174 861,189 741,189"/></g><!-- 2125519725&#45;&gt;160099750 --><g id="edge6" class="edge"><title>2125519725&#45;&gt;160099750</title><a xlink:href="platform%3A%2Fresource%2FRepository%2Fmgiml%2Fmgiml.uml%23_clWl0Nv9EeGylJ60vDoYdA" xlink:title="experimentType\n1..*"><path style="fill:none;stroke:#a30036;" d="M544,37C602,45 686,58 715,73 740,87 762,111 778,131"/><polygon style="fill:#a30036;stroke:#a30036;" points="544,37 539,32 532,35 537,40 544,37"/><polygon style="fill:#a30036;stroke:#a30036;" points="784,139 782,128 782,137 778,131 782,137 774,134 784,139 784,139"/><text text-anchor="middle" x="780" y="82" style="font-family:Arial;font-size:10.00;">experimentType</text><text text-anchor="middle" x="780" y="94" style="font-family:Arial;font-size:10.00;">1..*</text></a></g><!-- 1232816414 --><g id="node6" class="node"><title>1232816414</title><polygon style="fill:#ffffcc;stroke:#ffffcc;" points="485,213 485,115 599,115 599,213 485,213"/><a xlink:href="platform%3A%2Fresource%2FRepository%2Fmgiml%2Fmgiml.uml%23_Ra5ESNc2EeGqj6dbAaQw_w" xlink:title="Datum"><clipPath id="mypathfile:/C:/Program%20Files/Eclipse_indigo/configuration/org.eclipse.osgi/bundles/953/1/.cp/icons/full/obj16/Class.gif1232816414"><polygon points="502,118 486,118 486,135 502,135 502,118 "/></clipPath><image xlink:href="file:/C:/Program%20Files/Eclipse_indigo/configuration/org.eclipse.osgi/bundles/953/1/.cp/icons/full/obj16/Class.gif" width="16px" height="17px" preserveAspectRatio="xMidYMid meet" x="486" y="118" clip-path="url(#mypathfile:/C:/Program%20Files/Eclipse_indigo/configuration/org.eclipse.osgi/bundles/953/1/.cp/icons/full/obj16/Class.gif1232816414)"/><text text-anchor="middle" x="551" y="131" style="font-family:Arial;font-size:13.00;">Datum</text><text text-anchor="middle" x="542" y="146" style="font-family:Arial;font-size:10.00;">(from mgiml)</text><polygon style="fill:none;stroke:#a30036;" points="485,150 485,115 599,115 599,150 485,150"/></a><a xlink:href="platform%3A%2Fresource%2FRepository%2Fmgiml%2Fmgiml.uml%23_Ra5ESdc2EeGqj6dbAaQw_w" xlink:title="id"><text text-anchor="middle" x="514" y="161" style="font-family:Arial;font-size:11.00;">id : integer</text></a><a xlink:href="platform%3A%2Fresource%2FRepository%2Fmgiml%2Fmgiml.uml%23_Ra5rUtc2EeGqj6dbAaQw_w" xlink:title="type"><text text-anchor="middle" x="516" y="173" style="font-family:Arial;font-size:11.00;">type : string</text></a><a xlink:href="platform%3A%2Fresource%2FRepository%2Fmgiml%2Fmgiml.uml%23_Ra9Vsdc2EeGqj6dbAaQw_w" xlink:title="description"><text text-anchor="middle" x="533" y="185" style="font-family:Arial;font-size:11.00;">description : string</text></a><a xlink:href="platform%3A%2Fresource%2FRepository%2Fmgiml%2Fmgiml.uml%23_RbDcUNc2EeGqj6dbAaQw_w" xlink:title="properties"><text text-anchor="middle" x="531" y="197" style="font-family:Arial;font-size:11.00;">properties : string</text></a><a xlink:href="platform%3A%2Fresource%2FRepository%2Fmgiml%2Fmgiml.uml%23_n&#45;MDMNs1EeG4nL&#45;0zQ4x_w" xlink:title="comment"><text text-anchor="middle" x="542" y="209" style="font-family:Arial;font-size:11.00;">comment : string [0..*]</text></a><polygon style="fill:none;stroke:#a30036;" points="485,213 485,150 599,150 599,213 485,213"/></g><!-- 2125519725&#45;&gt;1232816414 --><g id="edge8" class="edge"><title>2125519725&#45;&gt;1232816414</title><a xlink:href="platform%3A%2Fresource%2FRepository%2Fmgiml%2Fmgiml.uml%23_Ra5ER9c2EeGqj6dbAaQw_w" xlink:title="data\n1..*"><path style="fill:none;stroke:#a30036;" d="M502,66C507,79 512,92 518,106"/><polygon style="fill:#a30036;stroke:#a30036;" points="502,66 503,59 497,55 496,62 502,66"/><polygon style="fill:#a30036;stroke:#a30036;" points="522,115 522,104 521,112 518,106 521,112 514,108 522,115 522,115"/><text text-anchor="middle" x="522" y="82" style="font-family:Arial;font-size:10.00;">data</text><text text-anchor="middle" x="522" y="94" style="font-family:Arial;font-size:10.00;">1..*</text></a></g><!-- 1883495535 --><g id="node7" class="node"><title>1883495535</title><polygon style="fill:#ffffcc;stroke:#ffffcc;" points="5,281 5,231 85,231 85,281 5,281"/><a xlink:href="platform%3A%2Fresource%2FRepository%2Fmgiml%2Fmgiml.uml%23_n&#45;lNINsnEeG4nL&#45;0zQ4x_w" xlink:title="Materials"><clipPath id="mypathfile:/C:/Program%20Files/Eclipse_indigo/configuration/org.eclipse.osgi/bundles/953/1/.cp/icons/full/obj16/Class.gif1883495535"><polygon points="22,234 6,234 6,251 22,251 22,234 "/></clipPath><image xlink:href="file:/C:/Program%20Files/Eclipse_indigo/configuration/org.eclipse.osgi/bundles/953/1/.cp/icons/full/obj16/Class.gif" width="16px" height="17px" preserveAspectRatio="xMidYMid meet" x="6" y="234" clip-path="url(#mypathfile:/C:/Program%20Files/Eclipse_indigo/configuration/org.eclipse.osgi/bundles/953/1/.cp/icons/full/obj16/Class.gif1883495535)"/><text text-anchor="middle" x="53" y="247" style="font-family:Arial;font-size:13.00;">Materials</text><text text-anchor="middle" x="45" y="262" style="font-family:Arial;font-size:10.00;">(from mgiml)</text><polygon style="fill:none;stroke:#a30036;" points="5,266 5,231 85,231 85,266 5,266"/></a><text text-anchor="middle" x="45" y="277" style="font-family:Arial;font-size:11.00;"> </text><polygon style="fill:none;stroke:#a30036;" points="5,281 5,266 85,266 85,281 5,281"/></g><!-- 2125519725&#45;&gt;1883495535 --><g id="edge10" class="edge"><title>2125519725&#45;&gt;1883495535</title><a xlink:href="platform%3A%2Fresource%2FRepository%2Fmgiml%2Fmgiml.uml%23_Ra98yNc2EeGqj6dbAaQw_w" xlink:title="materials\n1..1"><path style="fill:none;stroke:#a30036;" d="M428,33C325,41 119,60 77,115 54,145 46,190 45,221"/><polygon style="fill:#a30036;stroke:#a30036;" points="428,33 434,36 440,32 434,29 428,33"/><polygon style="fill:#a30036;stroke:#a30036;" points="45,231 50,221 45,228 45,221 45,228 41,221 45,231 45,231"/><text text-anchor="middle" x="184" y="82" style="font-family:Arial;font-size:10.00;">materials</text><text text-anchor="middle" x="184" y="94" style="font-family:Arial;font-size:10.00;">1..1</text></a></g><!-- 769188379 --><g id="node8" class="node"><title>769188379</title><polygon style="fill:#ffffcc;stroke:#ffffcc;" points="86,189 86,139 258,139 258,189 86,189"/><a xlink:href="platform%3A%2Fresource%2FRepository%2Fmgiml%2Fmgiml.uml%23_RbAZDNc2EeGqj6dbAaQw_w" xlink:title="Preparation"><clipPath id="mypathfile:/C:/Program%20Files/Eclipse_indigo/configuration/org.eclipse.osgi/bundles/953/1/.cp/icons/full/obj16/Class.gif769188379"><polygon points="103,142 87,142 87,159 103,159 103,142 "/></clipPath><image xlink:href="file:/C:/Program%20Files/Eclipse_indigo/configuration/org.eclipse.osgi/bundles/953/1/.cp/icons/full/obj16/Class.gif" width="16px" height="17px" preserveAspectRatio="xMidYMid meet" x="87" y="142" clip-path="url(#mypathfile:/C:/Program%20Files/Eclipse_indigo/configuration/org.eclipse.osgi/bundles/953/1/.cp/icons/full/obj16/Class.gif769188379)"/><text text-anchor="middle" x="180" y="155" style="font-family:Arial;font-size:13.00;">Preparation</text><text text-anchor="middle" x="172" y="170" style="font-family:Arial;font-size:10.00;">(from mgiml)</text><polygon style="fill:none;stroke:#a30036;" points="86,174 86,139 258,139 258,174 86,174"/></a><a xlink:href="platform%3A%2Fresource%2FRepository%2Fmgiml%2Fmgiml.uml%23_RbBAEdc2EeGqj6dbAaQw_w" xlink:title="samplePreparationMethod"><text text-anchor="middle" x="172" y="185" style="font-family:Arial;font-size:11.00;">samplePreparationMethod : string</text></a><polygon style="fill:none;stroke:#a30036;" points="86,189 86,174 258,174 258,189 86,189"/></g><!-- 2125519725&#45;&gt;769188379 --><g id="edge12" class="edge"><title>2125519725&#45;&gt;769188379</title><a xlink:href="platform%3A%2Fresource%2FRepository%2Fmgiml%2Fmgiml.uml%23_RbAZC9c2EeGqj6dbAaQw_w" xlink:title="preparation\n1..1"><path style="fill:none;stroke:#a30036;" d="M428,34C361,39 257,51 225,73 206,87 192,110 184,130"/><polygon style="fill:#a30036;stroke:#a30036;" points="428,34 434,37 440,33 434,30 428,34"/><polygon style="fill:#a30036;stroke:#a30036;" points="180,139 188,132 181,136 184,130 181,136 180,128 180,139 180,139"/><text text-anchor="middle" x="256" y="82" style="font-family:Arial;font-size:10.00;">preparation</text><text text-anchor="middle" x="256" y="94" style="font-family:Arial;font-size:10.00;">1..1</text></a></g><!-- 254746698 --><g id="node9" class="node"><title>254746698</title><polygon style="fill:#ffffcc;stroke:#ffffcc;" points="879,189 879,139 1033,139 1033,189 879,189"/><a xlink:href="platform%3A%2Fresource%2FRepository%2Fmgiml%2Fmgiml.uml%23_bgo7YNtLEeG4nL&#45;0zQ4x_w" xlink:title="EquipmentInformation"><clipPath id="mypathfile:/C:/Program%20Files/Eclipse_indigo/configuration/org.eclipse.osgi/bundles/953/1/.cp/icons/full/obj16/Class.gif254746698"><polygon points="896,142 880,142 880,159 896,159 896,142 "/></clipPath><image xlink:href="file:/C:/Program%20Files/Eclipse_indigo/configuration/org.eclipse.osgi/bundles/953/1/.cp/icons/full/obj16/Class.gif" width="16px" height="17px" preserveAspectRatio="xMidYMid meet" x="880" y="142" clip-path="url(#mypathfile:/C:/Program%20Files/Eclipse_indigo/configuration/org.eclipse.osgi/bundles/953/1/.cp/icons/full/obj16/Class.gif254746698)"/><text text-anchor="middle" x="965" y="155" style="font-family:Arial;font-size:13.00;">EquipmentInformation</text><text text-anchor="middle" x="956" y="170" style="font-family:Arial;font-size:10.00;">(from mgiml)</text><polygon style="fill:none;stroke:#a30036;" points="879,174 879,139 1033,139 1033,174 879,174"/></a><text text-anchor="middle" x="956" y="185" style="font-family:Arial;font-size:11.00;"> </text><polygon style="fill:none;stroke:#a30036;" points="879,189 879,174 1033,174 1033,189 879,189"/></g><!-- 2125519725&#45;&gt;254746698 --><g id="edge20" class="edge"><title>2125519725&#45;&gt;254746698</title><a xlink:href="platform%3A%2Fresource%2FRepository%2Fmgiml%2Fmgiml.uml%23_GClB4NtMEeG4nL&#45;0zQ4x_w" xlink:title="equipmentInformation\n0..1"><path style="fill:none;stroke:#a30036;" d="M544,34C626,41 772,55 821,73 857,87 893,112 919,133"/><polygon style="fill:#a30036;stroke:#a30036;" points="544,34 538,30 532,33 538,37 544,34"/><polygon style="fill:#a30036;stroke:#a30036;" points="927,139 922,129 925,137 919,133 925,137 916,137 927,139 927,139"/><text text-anchor="middle" x="912" y="82" style="font-family:Arial;font-size:10.00;">equipmentInformation</text><text text-anchor="middle" x="912" y="94" style="font-family:Arial;font-size:10.00;">0..1</text></a></g><!-- 1755590660 --><g id="node10" class="node"><title>1755590660</title><polygon style="fill:#ffffcc;stroke:#ffffcc;" points="590,429 590,379 732,379 732,429 590,429"/><a xlink:href="platform%3A%2Fresource%2FRepository%2Fmgiml%2Fmgiml.uml%23_SZg7gNzPEeGBfq3QhBtbtA" xlink:title="DiffusionExperiment"><clipPath id="mypathfile:/C:/Program%20Files/Eclipse_indigo/configuration/org.eclipse.osgi/bundles/953/1/.cp/icons/full/obj16/Class.gif1755590660"><polygon points="607,382 591,382 591,399 607,399 607,382 "/></clipPath><image xlink:href="file:/C:/Program%20Files/Eclipse_indigo/configuration/org.eclipse.osgi/bundles/953/1/.cp/icons/full/obj16/Class.gif" width="16px" height="17px" preserveAspectRatio="xMidYMid meet" x="591" y="382" clip-path="url(#mypathfile:/C:/Program%20Files/Eclipse_indigo/configuration/org.eclipse.osgi/bundles/953/1/.cp/icons/full/obj16/Class.gif1755590660)"/><text text-anchor="middle" x="669" y="395" style="font-family:Arial;font-size:13.00;">DiffusionExperiment</text><text text-anchor="middle" x="661" y="410" style="font-family:Arial;font-size:10.00;">(from mgiml)</text><polygon style="fill:none;stroke:#a30036;" points="590,414 590,379 732,379 732,414 590,414"/></a><text text-anchor="middle" x="661" y="425" style="font-family:Arial;font-size:11.00;"> </text><polygon style="fill:none;stroke:#a30036;" points="590,429 590,414 732,414 732,429 590,429"/></g><!-- 2125519725&#45;&gt;1755590660 --><g id="edge2" class="edge"><title>2125519725&#45;&gt;1755590660</title><path style="fill:none;stroke:#000080;" d="M543,63C564,77 589,96 608,115 651,160 667,172 686,231 691,250 682,357 681,361 679,367 677,373 674,379"/><polygon style="fill:none;stroke:#000080;" points="540,67 530,55 546,58 540,67"/></g><!-- 1232816414&#45;&gt;681218845 --><g id="edge26" class="edge"><title>1232816414&#45;&gt;681218845</title><a xlink:href="platform%3A%2Fresource%2FRepository%2Fmgiml%2Fmgiml.uml%23_gv6P0Nv_EeGylJ60vDoYdA" xlink:title="value\n1..*"><path style="fill:none;stroke:#a30036;" d="M539,225C533,327 514,523 471,575 452,599 419,609 393,614"/><polygon style="fill:#a30036;stroke:#a30036;" points="539,225 543,219 540,213 536,219 539,225"/><polygon style="fill:#a30036;stroke:#a30036;" points="383,616 394,618 386,615 393,614 386,615 392,610 383,616 383,616"/><text text-anchor="middle" x="536" y="401" style="font-family:Arial;font-size:10.00;">value</text><text text-anchor="middle" x="536" y="413" style="font-family:Arial;font-size:10.00;">1..*</text></a></g><!-- 2128866430 --><g id="node11" class="node"><title>2128866430</title><polygon style="fill:#ffffcc;stroke:#ffffcc;" points="550,355 550,305 672,305 672,355 550,355"/><a xlink:href="platform%3A%2Fresource%2FRepository%2Fmgiml%2Fmgiml.uml%23_ANvvsNwAEeGylJ60vDoYdA" xlink:title="MaterialProperty"><clipPath id="mypathfile:/C:/Program%20Files/Eclipse_indigo/configuration/org.eclipse.osgi/bundles/953/1/.cp/icons/full/obj16/Class.gif2128866430"><polygon points="567,308 551,308 551,325 567,325 567,308 "/></clipPath><image xlink:href="file:/C:/Program%20Files/Eclipse_indigo/configuration/org.eclipse.osgi/bundles/953/1/.cp/icons/full/obj16/Class.gif" width="16px" height="17px" preserveAspectRatio="xMidYMid meet" x="551" y="308" clip-path="url(#mypathfile:/C:/Program%20Files/Eclipse_indigo/configuration/org.eclipse.osgi/bundles/953/1/.cp/icons/full/obj16/Class.gif2128866430)"/><text text-anchor="middle" x="619" y="321" style="font-family:Arial;font-size:13.00;">MaterialProperty</text><text text-anchor="middle" x="611" y="336" style="font-family:Arial;font-size:10.00;">(from mgiml)</text><polygon style="fill:none;stroke:#a30036;" points="550,340 550,305 672,305 672,340 550,340"/></a><a xlink:href="platform%3A%2Fresource%2FRepository%2Fmgiml%2Fmgiml.uml%23_C4CywNwAEeGylJ60vDoYdA" xlink:title="name"><text text-anchor="middle" x="585" y="351" style="font-family:Arial;font-size:11.00;">name : string</text></a><polygon style="fill:none;stroke:#a30036;" points="550,355 550,340 672,340 672,355 550,355"/></g><!-- 1232816414&#45;&gt;2128866430 --><g id="edge24" class="edge"><title>1232816414&#45;&gt;2128866430</title><a xlink:href="platform%3A%2Fresource%2FRepository%2Fmgiml%2Fmgiml.uml%23_LdvdQNwAEeGylJ60vDoYdA" xlink:title="measuredParameters\n1..1"><path style="fill:none;stroke:#a30036;" d="M565,224C573,243 582,263 589,281 591,286 593,291 595,296"/><polygon style="fill:#a30036;stroke:#a30036;" points="565,224 567,217 561,213 559,220 565,224"/><polygon style="fill:#a30036;stroke:#a30036;" points="599,305 599,294 598,302 595,296 598,302 591,298 599,305 599,305"/><text text-anchor="middle" x="637" y="253" style="font-family:Arial;font-size:10.00;">measuredParameters</text><text text-anchor="middle" x="637" y="265" style="font-family:Arial;font-size:10.00;">1..1</text></a></g><!-- 1883495535&#45;&gt;1688724592 --><g id="edge28" class="edge"><title>1883495535&#45;&gt;1688724592</title><a xlink:href="platform%3A%2Fresource%2FRepository%2Fmgiml%2Fmgiml.uml%23_Ec9SQNsoEeG4nL&#45;0zQ4x_w" xlink:title="material\n1..*"><path style="fill:none;stroke:#a30036;" d="M40,293C37,323 33,366 33,404 33,404 33,404 33,618 33,651 51,684 64,706"/><polygon style="fill:#a30036;stroke:#a30036;" points="40,293 45,288 42,281 37,286 40,293"/><polygon style="fill:#a30036;stroke:#a30036;" points="70,714 68,703 68,712 64,706 68,712 60,709 70,714 70,714"/><text text-anchor="middle" x="52" y="487" style="font-family:Arial;font-size:10.00;">material</text><text text-anchor="middle" x="52" y="499" style="font-family:Arial;font-size:10.00;">1..*</text></a></g><!-- 186181892 --><g id="node12" class="node"><title>186181892</title><polygon style="fill:#ffffcc;stroke:#ffffcc;" points="79,355 79,305 251,305 251,355 79,355"/><a xlink:href="platform%3A%2Fresource%2FRepository%2Fmgiml%2Fmgiml.uml%23_RbBAFdc2EeGqj6dbAaQw_w" xlink:title="SamplePreparationSteps"><clipPath id="mypathfile:/C:/Program%20Files/Eclipse_indigo/configuration/org.eclipse.osgi/bundles/953/1/.cp/icons/full/obj16/Class.gif186181892"><polygon points="96,308 80,308 80,325 96,325 96,308 "/></clipPath><image xlink:href="file:/C:/Program%20Files/Eclipse_indigo/configuration/org.eclipse.osgi/bundles/953/1/.cp/icons/full/obj16/Class.gif" width="16px" height="17px" preserveAspectRatio="xMidYMid meet" x="80" y="308" clip-path="url(#mypathfile:/C:/Program%20Files/Eclipse_indigo/configuration/org.eclipse.osgi/bundles/953/1/.cp/icons/full/obj16/Class.gif186181892)"/><text text-anchor="middle" x="174" y="321" style="font-family:Arial;font-size:13.00;">SamplePreparationSteps</text><text text-anchor="middle" x="165" y="336" style="font-family:Arial;font-size:10.00;">(from mgiml)</text><polygon style="fill:none;stroke:#a30036;" points="79,340 79,305 251,305 251,340 79,340"/></a><text text-anchor="middle" x="165" y="351" style="font-family:Arial;font-size:11.00;"> </text><polygon style="fill:none;stroke:#a30036;" points="79,355 79,340 251,340 251,355 79,355"/></g><!-- 769188379&#45;&gt;186181892 --><g id="edge30" class="edge"><title>769188379&#45;&gt;186181892</title><a xlink:href="platform%3A%2Fresource%2FRepository%2Fmgiml%2Fmgiml.uml%23_RbBAFNc2EeGqj6dbAaQw_w" xlink:title="samplePreparationSteps\n1..1"><path style="fill:none;stroke:#a30036;" d="M168,201C167,211 167,221 166,231 165,252 165,276 165,295"/><polygon style="fill:#a30036;stroke:#a30036;" points="168,201 173,196 170,189 165,194 168,201"/><polygon style="fill:#a30036;stroke:#a30036;" points="165,305 170,295 165,302 165,295 165,302 161,295 165,305 165,305"/><text text-anchor="middle" x="224" y="253" style="font-family:Arial;font-size:10.00;">samplePreparationSteps</text><text text-anchor="middle" x="224" y="265" style="font-family:Arial;font-size:10.00;">1..1</text></a></g><!-- 1384618202 --><g id="node13" class="node"><title>1384618202</title><polygon style="fill:#ffffcc;stroke:#ffffcc;" points="899,361 899,299 1013,299 1013,361 899,361"/><a xlink:href="platform%3A%2Fresource%2FRepository%2Fmgiml%2Fmgiml.uml%23_ualc4NtLEeG4nL&#45;0zQ4x_w" xlink:title="Comments"><clipPath id="mypathfile:/C:/Program%20Files/Eclipse_indigo/configuration/org.eclipse.osgi/bundles/953/1/.cp/icons/full/obj16/Class.gif1384618202"><polygon points="916,302 900,302 900,319 916,319 916,302 "/></clipPath><image xlink:href="file:/C:/Program%20Files/Eclipse_indigo/configuration/org.eclipse.osgi/bundles/953/1/.cp/icons/full/obj16/Class.gif" width="16px" height="17px" preserveAspectRatio="xMidYMid meet" x="900" y="302" clip-path="url(#mypathfile:/C:/Program%20Files/Eclipse_indigo/configuration/org.eclipse.osgi/bundles/953/1/.cp/icons/full/obj16/Class.gif1384618202)"/><text text-anchor="middle" x="965" y="315" style="font-family:Arial;font-size:13.00;">Comments</text><text text-anchor="middle" x="956" y="330" style="font-family:Arial;font-size:10.00;">(from mgiml)</text><polygon style="fill:none;stroke:#a30036;" points="899,334 899,299 1013,299 1013,334 899,334"/></a><a xlink:href="platform%3A%2Fresource%2FRepository%2Fmgiml%2Fmgiml.uml%23_kKzZsNtMEeG4nL&#45;0zQ4x_w" xlink:title="resultType"><text text-anchor="middle" x="945" y="345" style="font-family:Arial;font-size:11.00;">resultType : string</text></a><a xlink:href="platform%3A%2Fresource%2FRepository%2Fmgiml%2Fmgiml.uml%23_T6uWENtPEeG4nL&#45;0zQ4x_w" xlink:title="comment"><text text-anchor="middle" x="956" y="357" style="font-family:Arial;font-size:11.00;">comment : string [1..*]</text></a><polygon style="fill:none;stroke:#a30036;" points="899,361 899,334 1013,334 1013,361 899,361"/></g><!-- 254746698&#45;&gt;1384618202 --><g id="edge32" class="edge"><title>254746698&#45;&gt;1384618202</title><a xlink:href="platform%3A%2Fresource%2FRepository%2Fmgiml%2Fmgiml.uml%23_yhCU4NtLEeG4nL&#45;0zQ4x_w" xlink:title="comments\n1..*"><path style="fill:none;stroke:#a30036;" d="M956,201C956,227 956,262 956,289"/><polygon style="fill:#a30036;stroke:#a30036;" points="956,201 960,195 956,189 952,195 956,201"/><polygon style="fill:#a30036;stroke:#a30036;" points="956,299 961,289 956,296 956,289 956,296 952,289 956,299 956,299"/><text text-anchor="middle" x="979" y="253" style="font-family:Arial;font-size:10.00;">comments</text><text text-anchor="middle" x="979" y="265" style="font-family:Arial;font-size:10.00;">1..*</text></a></g><!-- 796047249 --><g id="node14" class="node"><title>796047249</title><polygon style="fill:#ffffcc;stroke:#ffffcc;" points="441,753 441,703 569,703 569,753 441,753"/><a xlink:href="platform%3A%2Fresource%2FRepository%2Fmgiml%2Fmgiml.uml%23_nFAg8NwQEeGylJ60vDoYdA" xlink:title="ChemicalElement"><clipPath id="mypathfile:/C:/Program%20Files/Eclipse_indigo/configuration/org.eclipse.osgi/bundles/953/1/.cp/icons/full/obj16/Class.gif796047249"><polygon points="458,706 442,706 442,723 458,723 458,706 "/></clipPath><image xlink:href="file:/C:/Program%20Files/Eclipse_indigo/configuration/org.eclipse.osgi/bundles/953/1/.cp/icons/full/obj16/Class.gif" width="16px" height="17px" preserveAspectRatio="xMidYMid meet" x="442" y="706" clip-path="url(#mypathfile:/C:/Program%20Files/Eclipse_indigo/configuration/org.eclipse.osgi/bundles/953/1/.cp/icons/full/obj16/Class.gif796047249)"/><text text-anchor="middle" x="513" y="719" style="font-family:Arial;font-size:13.00;">ChemicalElement</text><text text-anchor="middle" x="505" y="734" style="font-family:Arial;font-size:10.00;">(from mgiml)</text><polygon style="fill:none;stroke:#a30036;" points="441,738 441,703 569,703 569,738 441,738"/></a><a xlink:href="platform%3A%2Fresource%2FRepository%2Fmgiml%2Fmgiml.uml%23_ofCO8NwQEeGylJ60vDoYdA" xlink:title="chemicalSymbol"><text text-anchor="middle" x="502" y="749" style="font-family:Arial;font-size:11.00;">chemicalSymbol : string</text></a><polygon style="fill:none;stroke:#a30036;" points="441,753 441,738 569,738 569,753 441,753"/></g><!-- 1755590660&#45;&gt;796047249 --><g id="edge34" class="edge"><title>1755590660&#45;&gt;796047249</title><a xlink:href="platform%3A%2Fresource%2FRepository%2Fmgiml%2Fmgiml.uml%23_1uU3gNzQEeGBfq3QhBtbtA" xlink:title="dependentSpecies\n1..*"><path style="fill:none;stroke:#a30036;" d="M644,440C614,503 551,632 521,694"/><polygon style="fill:#a30036;stroke:#a30036;" points="644,440 650,436 649,429 643,433 644,440"/><polygon style="fill:#a30036;stroke:#a30036;" points="517,703 525,696 518,700 521,694 518,700 517,692 517,703 517,703"/><text text-anchor="middle" x="630" y="560" style="font-family:Arial;font-size:10.00;">dependentSpecies</text><text text-anchor="middle" x="630" y="572" style="font-family:Arial;font-size:10.00;">1..*</text></a></g><!-- 551926596 --><g id="node15" class="node"><title>551926596</title><polygon style="fill:#ffffcc;stroke:#ffffcc;" points="88,533 88,447 252,447 252,533 88,533"/><a xlink:href="platform%3A%2Fresource%2FRepository%2Fmgiml%2Fmgiml.uml%23_RbBAF9c2EeGqj6dbAaQw_w" xlink:title="SamplePreparationStep"><clipPath id="mypathfile:/C:/Program%20Files/Eclipse_indigo/configuration/org.eclipse.osgi/bundles/953/1/.cp/icons/full/obj16/Class.gif551926596"><polygon points="105,450 89,450 89,467 105,467 105,450 "/></clipPath><image xlink:href="file:/C:/Program%20Files/Eclipse_indigo/configuration/org.eclipse.osgi/bundles/953/1/.cp/icons/full/obj16/Class.gif" width="16px" height="17px" preserveAspectRatio="xMidYMid meet" x="89" y="450" clip-path="url(#mypathfile:/C:/Program%20Files/Eclipse_indigo/configuration/org.eclipse.osgi/bundles/953/1/.cp/icons/full/obj16/Class.gif551926596)"/><text text-anchor="middle" x="178" y="463" style="font-family:Arial;font-size:13.00;">SamplePreparationStep</text><text text-anchor="middle" x="170" y="478" style="font-family:Arial;font-size:10.00;">(from mgiml)</text><polygon style="fill:none;stroke:#a30036;" points="88,482 88,447 252,447 252,482 88,482"/></a><a xlink:href="platform%3A%2Fresource%2FRepository%2Fmgiml%2Fmgiml.uml%23_RbBAGNc2EeGqj6dbAaQw_w" xlink:title="comment"><text text-anchor="middle" x="132" y="493" style="font-family:Arial;font-size:11.00;">comment : string</text></a><a xlink:href="platform%3A%2Fresource%2FRepository%2Fmgiml%2Fmgiml.uml%23_RbBnMNc2EeGqj6dbAaQw_w" xlink:title="method"><text text-anchor="middle" x="127" y="505" style="font-family:Arial;font-size:11.00;">method : string</text></a><a xlink:href="platform%3A%2Fresource%2FRepository%2Fmgiml%2Fmgiml.uml%23_RbCOMtc2EeGqj6dbAaQw_w" xlink:title="container"><text text-anchor="middle" x="146" y="517" style="font-family:Arial;font-size:11.00;">container : string [0..1]</text></a><a xlink:href="platform%3A%2Fresource%2FRepository%2Fmgiml%2Fmgiml.uml%23_RbCONdc2EeGqj6dbAaQw_w" xlink:title="sampleGeometry"><text text-anchor="middle" x="165" y="529" style="font-family:Arial;font-size:11.00;">sampleGeometry : string [0..1]</text></a><polygon style="fill:none;stroke:#a30036;" points="88,533 88,482 252,482 252,533 88,533"/></g><!-- 186181892&#45;&gt;551926596 --><g id="edge36" class="edge"><title>186181892&#45;&gt;551926596</title><a xlink:href="platform%3A%2Fresource%2FRepository%2Fmgiml%2Fmgiml.uml%23_RbBAFtc2EeGqj6dbAaQw_w" xlink:title="samplePreparationStep\n1..*\n {ordered}"><path style="fill:none;stroke:#a30036;" d="M166,367C167,388 168,414 169,437"/><polygon style="fill:#a30036;stroke:#a30036;" points="166,367 170,361 166,355 162,361 166,367"/><polygon style="fill:#a30036;stroke:#a30036;" points="169,447 174,437 169,444 169,437 169,444 165,437 169,447 169,447"/><text text-anchor="middle" x="222" y="395" style="font-family:Arial;font-size:10.00;">samplePreparationStep</text><text text-anchor="middle" x="222" y="407" style="font-family:Arial;font-size:10.00;">1..*</text><text text-anchor="middle" x="222" y="419" style="font-family:Arial;font-size:10.00;"> {ordered}</text></a></g><!-- 551926596&#45;&gt;1688724592 --><g id="edge38" class="edge"><title>551926596&#45;&gt;1688724592</title><a xlink:href="platform%3A%2Fresource%2FRepository%2Fmgiml%2Fmgiml.uml%23_RbBAG9c2EeGqj6dbAaQw_w" xlink:title="surround\n1..1"><path style="fill:none;stroke:#a30036;" d="M119,543C107,558 96,575 89,593 75,630 76,676 77,704"/><polygon style="fill:#a30036;stroke:#a30036;" points="120,542 126,540 127,533 120,535 120,542"/><polygon style="fill:#a30036;stroke:#a30036;" points="78,714 81,704 78,711 77,704 78,711 73,704 78,714 78,714"/><text text-anchor="middle" x="112" y="615" style="font-family:Arial;font-size:10.00;">surround</text><text text-anchor="middle" x="112" y="627" style="font-family:Arial;font-size:10.00;">1..1</text></a></g><!-- 551926596&#45;&gt;681218845 --><g id="edge40" class="edge"><title>551926596&#45;&gt;681218845</title><a xlink:href="platform%3A%2Fresource%2FRepository%2Fmgiml%2Fmgiml.uml%23_RbBnIdc2EeGqj6dbAaQw_w" xlink:title="temperature\n0..1"><path style="fill:none;stroke:#a30036;" d="M154,545C153,556 156,567 163,575 186,601 285,582 317,593 321,595 325,597 329,599"/><polygon style="fill:#a30036;stroke:#a30036;" points="154,545 158,539 155,533 151,539 154,545"/><polygon style="fill:#a30036;stroke:#a30036;" points="338,604 331,595 335,603 329,599 335,603 327,603 338,604 338,604"/><text text-anchor="middle" x="191" y="560" style="font-family:Arial;font-size:10.00;">temperature</text><text text-anchor="middle" x="191" y="572" style="font-family:Arial;font-size:10.00;">0..1</text></a></g><!-- 551926596&#45;&gt;681218845 --><g id="edge42" class="edge"><title>551926596&#45;&gt;681218845</title><a xlink:href="platform%3A%2Fresource%2FRepository%2Fmgiml%2Fmgiml.uml%23_RbBnJtc2EeGqj6dbAaQw_w" xlink:title="pressure\n0..1"><path style="fill:none;stroke:#a30036;" d="M213,543C226,559 238,572 242,575 272,593 286,580 317,593 321,595 325,597 328,599"/><polygon style="fill:#a30036;stroke:#a30036;" points="212,542 212,535 205,533 206,540 212,542"/><polygon style="fill:#a30036;stroke:#a30036;" points="337,604 330,595 334,603 328,599 334,603 326,603 337,604 337,604"/><text text-anchor="middle" x="262" y="560" style="font-family:Arial;font-size:10.00;">pressure</text><text text-anchor="middle" x="262" y="572" style="font-family:Arial;font-size:10.00;">0..1</text></a></g><!-- 551926596&#45;&gt;681218845 --><g id="edge44" class="edge"><title>551926596&#45;&gt;681218845</title><a xlink:href="platform%3A%2Fresource%2FRepository%2Fmgiml%2Fmgiml.uml%23_RbBnK9c2EeGqj6dbAaQw_w" xlink:title="duration\n0..1"><path style="fill:none;stroke:#a30036;" d="M262,538C269,542 275,546 281,551 293,560 294,565 304,575 312,582 322,591 330,597"/><polygon style="fill:#a30036;stroke:#a30036;" points="262,538 259,531 252,531 255,538 262,538"/><polygon style="fill:#a30036;stroke:#a30036;" points="338,604 333,594 336,602 330,597 336,602 328,601 338,604 338,604"/><text text-anchor="middle" x="323" y="560" style="font-family:Arial;font-size:10.00;">duration</text><text text-anchor="middle" x="323" y="572" style="font-family:Arial;font-size:10.00;">0..1</text></a></g><!-- 1975158249 --><g id="node16" class="node"><title>1975158249</title><polygon style="fill:#ffffcc;stroke:#ffffcc;" points="138,643 138,593 308,593 308,643 138,643"/><a xlink:href="platform%3A%2Fresource%2FRepository%2Fmgiml%2Fmgiml.uml%23_reRx0NwREeGylJ60vDoYdA" xlink:title="DiffusionPreparationStep"><clipPath id="mypathfile:/C:/Program%20Files/Eclipse_indigo/configuration/org.eclipse.osgi/bundles/953/1/.cp/icons/full/obj16/Class.gif1975158249"><polygon points="155,596 139,596 139,613 155,613 155,596 "/></clipPath><image xlink:href="file:/C:/Program%20Files/Eclipse_indigo/configuration/org.eclipse.osgi/bundles/953/1/.cp/icons/full/obj16/Class.gif" width="16px" height="17px" preserveAspectRatio="xMidYMid meet" x="139" y="596" clip-path="url(#mypathfile:/C:/Program%20Files/Eclipse_indigo/configuration/org.eclipse.osgi/bundles/953/1/.cp/icons/full/obj16/Class.gif1975158249)"/><text text-anchor="middle" x="231" y="609" style="font-family:Arial;font-size:13.00;">DiffusionPreparationStep</text><text text-anchor="middle" x="223" y="624" style="font-family:Arial;font-size:10.00;">(from mgiml)</text><polygon style="fill:none;stroke:#a30036;" points="138,628 138,593 308,593 308,628 138,628"/></a><text text-anchor="middle" x="223" y="639" style="font-family:Arial;font-size:11.00;"> </text><polygon style="fill:none;stroke:#a30036;" points="138,643 138,628 308,628 308,643 138,643"/></g><!-- 551926596&#45;&gt;1975158249 --><g id="edge4" class="edge"><title>551926596&#45;&gt;1975158249</title><path style="fill:none;stroke:#000080;" d="M139,547C137,557 138,566 143,575 147,582 153,588 159,593"/><polygon style="fill:none;stroke:#000080;" points="134,546 143,533 144,549 134,546"/></g><!-- 1975158249&#45;&gt;1688724592 --><g id="edge48" class="edge"><title>1975158249&#45;&gt;1688724592</title><a xlink:href="platform%3A%2Fresource%2FRepository%2Fmgiml%2Fmgiml.uml%23_7HBBQNwREeGylJ60vDoYdA" xlink:title="materialDiffusedInto\n1..1"><path style="fill:none;stroke:#a30036;" d="M180,651C155,669 126,692 106,708"/><polygon style="fill:#a30036;stroke:#a30036;" points="181,650 188,650 190,643 183,644 181,650"/><polygon style="fill:#a30036;stroke:#a30036;" points="98,714 109,712 100,712 106,708 100,712 103,704 98,714 98,714"/><text text-anchor="middle" x="216" y="670" style="font-family:Arial;font-size:10.00;">materialDiffusedInto</text><text text-anchor="middle" x="216" y="682" style="font-family:Arial;font-size:10.00;">1..1</text></a></g><!-- 1975158249&#45;&gt;796047249 --><g id="edge46" class="edge"><title>1975158249&#45;&gt;796047249</title><a xlink:href="platform%3A%2Fresource%2FRepository%2Fmgiml%2Fmgiml.uml%23_0as6QNwREeGylJ60vDoYdA" xlink:title="diffusingSpecies\n1..*"><path style="fill:none;stroke:#a30036;" d="M298,647C340,664 391,683 432,699"/><polygon style="fill:#a30036;stroke:#a30036;" points="298,647 294,641 287,643 291,649 298,647"/><polygon style="fill:#a30036;stroke:#a30036;" points="441,703 434,695 438,702 432,699 438,702 430,703 441,703 441,703"/><text text-anchor="middle" x="427" y="670" style="font-family:Arial;font-size:10.00;">diffusingSpecies</text><text text-anchor="middle" x="427" y="682" style="font-family:Arial;font-size:10.00;">1..*</text></a></g></g></svg>