<?xml version="1.0" encoding="UTF-8" standalone="no"?><!DOCTYPE svg PUBLIC "-//W3C//DTD SVG 1.0//EN" "http://www.w3.org/TR/2001/REC-SVG-20010904/DTD/svg10.dtd" [ <!ATTLIST svg xmlns:xlink CDATA #FIXED "http://www.w3.org/1999/xlink">]><!-- Generated by dot version 2.7.20051103.0540 (Thu Nov  3 05:48:38 UTC 2005)     For user: Bill Gates --><!-- Title: uml Pages: 1 --><svg width="599pt" height="732pt" viewBox = "0 0 599 732" xmlns="http://www.w3.org/2000/svg" xmlns:xlink="http://www.w3.org/1999/xlink"><g id="graph0" class="graph" style="font-family:Times-Roman;font-size:14.00;"><title>uml</title><polygon style="fill:white;stroke:white;" points="-1,733 -1,-1 600,-1 600,733 -1,733"/><!-- 2035899821 --><g id="node1" class="node"><title>2035899821</title><a xlink:href="platform%3A%2Fresource%2FRepository%2Fmgiml%2Fmgiml.uml%23_Ra32Idc2EeGqj6dbAaQw_w" xlink:title="Quantity"><polygon style="fill:#e0ffff;stroke:#a30036;stroke-dasharray:5,2;" points="154,579 98,579 98,605 154,605 154,579"/><text text-anchor="middle" x="126" y="596" style="font-family:Arial;font-size:11.00;">Quantity</text></a></g><!-- 1423802761 --><g id="node2" class="node"><title>1423802761</title><polygon style="fill:#ffffcc;stroke:#ffffcc;" points="287,55 287,5 397,5 397,55 287,55"/><a xlink:href="platform%3A%2Fresource%2FRepository%2Fmgiml%2Fmgiml.uml%23_Ra98ydc2EeGqj6dbAaQw_w" xlink:title="Material"><clipPath id="mypathfile:/C:/Program%20Files/Eclipse_indigo/configuration/org.eclipse.osgi/bundles/953/1/.cp/icons/full/obj16/Class.gif1423802761"><polygon points="304,8 288,8 288,25 304,25 304,8 "/></clipPath><image xlink:href="file:/C:/Program%20Files/Eclipse_indigo/configuration/org.eclipse.osgi/bundles/953/1/.cp/icons/full/obj16/Class.gif" width="16px" height="17px" preserveAspectRatio="xMidYMid meet" x="288" y="8" clip-path="url(#mypathfile:/C:/Program%20Files/Eclipse_indigo/configuration/org.eclipse.osgi/bundles/953/1/.cp/icons/full/obj16/Class.gif1423802761)"/><text text-anchor="middle" x="351" y="21" style="font-family:Arial;font-size:13.00;">Material</text><text text-anchor="middle" x="342" y="36" style="font-family:Arial;font-size:10.00;">(from mgiml)</text><polygon style="fill:none;stroke:#a30036;" points="287,40 287,5 397,5 397,40 287,40"/></a><a xlink:href="platform%3A%2Fresource%2FRepository%2Fmgiml%2Fmgiml.uml%23_et5HENs2EeG4nL&#45;0zQ4x_w" xlink:title="materialName"><text text-anchor="middle" x="342" y="51" style="font-family:Arial;font-size:11.00;">materialName : string</text></a><polygon style="fill:none;stroke:#a30036;" points="287,55 287,40 397,40 397,55 287,55"/></g><!-- 1992083274 --><g id="node3" class="node"><title>1992083274</title><polygon style="fill:#ffffcc;stroke:#ffffcc;" points="211,165 211,115 281,115 281,165 211,165"/><a xlink:href="platform%3A%2Fresource%2FRepository%2Fmgiml%2Fmgiml.uml%23_Ra&#45;j2dc2EeGqj6dbAaQw_w" xlink:title="Phases"><clipPath id="mypathfile:/C:/Program%20Files/Eclipse_indigo/configuration/org.eclipse.osgi/bundles/953/1/.cp/icons/full/obj16/Class.gif1992083274"><polygon points="228,118 212,118 212,135 228,135 228,118 "/></clipPath><image xlink:href="file:/C:/Program%20Files/Eclipse_indigo/configuration/org.eclipse.osgi/bundles/953/1/.cp/icons/full/obj16/Class.gif" width="16px" height="17px" preserveAspectRatio="xMidYMid meet" x="212" y="118" clip-path="url(#mypathfile:/C:/Program%20Files/Eclipse_indigo/configuration/org.eclipse.osgi/bundles/953/1/.cp/icons/full/obj16/Class.gif1992083274)"/><text text-anchor="middle" x="254" y="131" style="font-family:Arial;font-size:13.00;">Phases</text><text text-anchor="middle" x="246" y="146" style="font-family:Arial;font-size:10.00;">(from mgiml)</text><polygon style="fill:none;stroke:#a30036;" points="211,150 211,115 281,115 281,150 211,150"/></a><text text-anchor="middle" x="246" y="161" style="font-family:Arial;font-size:11.00;"> </text><polygon style="fill:none;stroke:#a30036;" points="211,165 211,150 281,150 281,165 211,165"/></g><!-- 1423802761&#45;&gt;1992083274 --><g id="edge2" class="edge"><title>1423802761&#45;&gt;1992083274</title><a xlink:href="platform%3A%2Fresource%2FRepository%2Fmgiml%2Fmgiml.uml%23_Ra98ytc2EeGqj6dbAaQw_w" xlink:title="phases\n1..1"><path style="fill:none;stroke:#a30036;" d="M312,64C300,78 286,94 275,107"/><polygon style="fill:#a30036;stroke:#a30036;" points="312,64 319,62 320,55 313,57 312,64"/><polygon style="fill:#a30036;stroke:#a30036;" points="268,115 278,110 270,113 275,107 270,113 271,105 268,115 268,115"/><text text-anchor="middle" x="323" y="82" style="font-family:Arial;font-size:10.00;">phases</text><text text-anchor="middle" x="323" y="94" style="font-family:Arial;font-size:10.00;">1..1</text></a></g><!-- 745144703 --><g id="node4" class="node"><title>745144703</title><polygon style="fill:#ffffcc;stroke:#ffffcc;" points="328,385 328,335 452,335 452,385 328,385"/><a xlink:href="platform%3A%2Fresource%2FRepository%2Fmgiml%2Fmgiml.uml%23_Ra_x99c2EeGqj6dbAaQw_w" xlink:title="BulkComposition"><clipPath id="mypathfile:/C:/Program%20Files/Eclipse_indigo/configuration/org.eclipse.osgi/bundles/953/1/.cp/icons/full/obj16/Class.gif745144703"><polygon points="345,338 329,338 329,355 345,355 345,338 "/></clipPath><image xlink:href="file:/C:/Program%20Files/Eclipse_indigo/configuration/org.eclipse.osgi/bundles/953/1/.cp/icons/full/obj16/Class.gif" width="16px" height="17px" preserveAspectRatio="xMidYMid meet" x="329" y="338" clip-path="url(#mypathfile:/C:/Program%20Files/Eclipse_indigo/configuration/org.eclipse.osgi/bundles/953/1/.cp/icons/full/obj16/Class.gif745144703)"/><text text-anchor="middle" x="398" y="351" style="font-family:Arial;font-size:13.00;">BulkComposition</text><text text-anchor="middle" x="390" y="366" style="font-family:Arial;font-size:10.00;">(from mgiml)</text><polygon style="fill:none;stroke:#a30036;" points="328,370 328,335 452,335 452,370 328,370"/></a><text text-anchor="middle" x="390" y="381" style="font-family:Arial;font-size:11.00;"> </text><polygon style="fill:none;stroke:#a30036;" points="328,385 328,370 452,370 452,385 328,385"/></g><!-- 1423802761&#45;&gt;745144703 --><g id="edge4" class="edge"><title>1423802761&#45;&gt;745144703</title><a xlink:href="platform%3A%2Fresource%2FRepository%2Fmgiml%2Fmgiml.uml%23_Ra_x9tc2EeGqj6dbAaQw_w" xlink:title="bulkComposition\n1..1"><path style="fill:none;stroke:#a30036;" d="M348,67C357,131 376,263 385,325"/><polygon style="fill:#a30036;stroke:#a30036;" points="348,67 351,60 346,55 343,62 348,67"/><polygon style="fill:#a30036;stroke:#a30036;" points="386,335 389,325 386,332 385,325 386,332 381,325 386,335 386,335"/><text text-anchor="middle" x="404" y="192" style="font-family:Arial;font-size:10.00;">bulkComposition</text><text text-anchor="middle" x="404" y="204" style="font-family:Arial;font-size:10.00;">1..1</text></a></g><!-- 1992083274&#45;&gt;2035899821 --><g id="edge6" class="edge"><title>1992083274&#45;&gt;2035899821</title><a xlink:href="platform%3A%2Fresource%2FRepository%2Fmgiml%2Fmgiml.uml%23_MzGVcNs2EeG4nL&#45;0zQ4x_w" xlink:title="temperature\n0..1"><path style="fill:none;stroke:#a30036;" d="M199,153C134,173 23,211 23,250 23,250 23,250 23,476 23,519 62,553 92,572"/><polygon style="fill:#a30036;stroke:#a30036;" points="199,153 206,155 211,150 204,148 199,153"/><polygon style="fill:#a30036;stroke:#a30036;" points="101,578 95,569 99,576 93,572 99,576 90,576 101,578 101,578"/><text text-anchor="middle" x="51" y="357" style="font-family:Arial;font-size:10.00;">temperature</text><text text-anchor="middle" x="51" y="369" style="font-family:Arial;font-size:10.00;">0..1</text></a></g><!-- 1659657524 --><g id="node5" class="node"><title>1659657524</title><polygon style="fill:#ffffcc;stroke:#ffffcc;" points="211,275 211,225 281,225 281,275 211,275"/><a xlink:href="platform%3A%2Fresource%2FRepository%2Fmgiml%2Fmgiml.uml%23_Ra&#45;j29c2EeGqj6dbAaQw_w" xlink:title="Phase"><clipPath id="mypathfile:/C:/Program%20Files/Eclipse_indigo/configuration/org.eclipse.osgi/bundles/953/1/.cp/icons/full/obj16/Class.gif1659657524"><polygon points="228,228 212,228 212,245 228,245 228,228 "/></clipPath><image xlink:href="file:/C:/Program%20Files/Eclipse_indigo/configuration/org.eclipse.osgi/bundles/953/1/.cp/icons/full/obj16/Class.gif" width="16px" height="17px" preserveAspectRatio="xMidYMid meet" x="212" y="228" clip-path="url(#mypathfile:/C:/Program%20Files/Eclipse_indigo/configuration/org.eclipse.osgi/bundles/953/1/.cp/icons/full/obj16/Class.gif1659657524)"/><text text-anchor="middle" x="255" y="241" style="font-family:Arial;font-size:13.00;">Phase</text><text text-anchor="middle" x="246" y="256" style="font-family:Arial;font-size:10.00;">(from mgiml)</text><polygon style="fill:none;stroke:#a30036;" points="211,260 211,225 281,225 281,260 211,260"/></a><a xlink:href="platform%3A%2Fresource%2FRepository%2Fmgiml%2Fmgiml.uml%23_Ra&#45;j3Nc2EeGqj6dbAaQw_w" xlink:title="name"><text text-anchor="middle" x="246" y="271" style="font-family:Arial;font-size:11.00;">name : string</text></a><polygon style="fill:none;stroke:#a30036;" points="211,275 211,260 281,260 281,275 211,275"/></g><!-- 1992083274&#45;&gt;1659657524 --><g id="edge8" class="edge"><title>1992083274&#45;&gt;1659657524</title><a xlink:href="platform%3A%2Fresource%2FRepository%2Fmgiml%2Fmgiml.uml%23_Ra&#45;j2tc2EeGqj6dbAaQw_w" xlink:title="phase\n1..*"><path style="fill:none;stroke:#a30036;" d="M246,177C246,189 246,203 246,215"/><polygon style="fill:#a30036;stroke:#a30036;" points="246,177 250,171 246,165 242,171 246,177"/><polygon style="fill:#a30036;stroke:#a30036;" points="246,225 251,215 246,222 246,215 246,222 242,215 246,225 246,225"/><text text-anchor="middle" x="260" y="192" style="font-family:Arial;font-size:10.00;">phase</text><text text-anchor="middle" x="260" y="204" style="font-family:Arial;font-size:10.00;">1..*</text></a></g><!-- 1995898066 --><g id="node6" class="node"><title>1995898066</title><polygon style="fill:#ffffcc;stroke:#ffffcc;" points="479,501 479,451 587,451 587,501 479,501"/><a xlink:href="platform%3A%2Fresource%2FRepository%2Fmgiml%2Fmgiml.uml%23_IjFFINwPEeGylJ60vDoYdA" xlink:title="FormOfMatter"><clipPath id="mypathfile:/C:/Program%20Files/Eclipse_indigo/configuration/org.eclipse.osgi/bundles/953/1/.cp/icons/full/obj16/Class.gif1995898066"><polygon points="496,454 480,454 480,471 496,471 496,454 "/></clipPath><image xlink:href="file:/C:/Program%20Files/Eclipse_indigo/configuration/org.eclipse.osgi/bundles/953/1/.cp/icons/full/obj16/Class.gif" width="16px" height="17px" preserveAspectRatio="xMidYMid meet" x="480" y="454" clip-path="url(#mypathfile:/C:/Program%20Files/Eclipse_indigo/configuration/org.eclipse.osgi/bundles/953/1/.cp/icons/full/obj16/Class.gif1995898066)"/><text text-anchor="middle" x="542" y="467" style="font-family:Arial;font-size:13.00;">FormOfMatter</text><text text-anchor="middle" x="533" y="482" style="font-family:Arial;font-size:10.00;">(from mgiml)</text><polygon style="fill:none;stroke:#a30036;" points="479,486 479,451 587,451 587,486 479,486"/></a><a xlink:href="platform%3A%2Fresource%2FRepository%2Fmgiml%2Fmgiml.uml%23_JkAWoNwPEeGylJ60vDoYdA" xlink:title="name"><text text-anchor="middle" x="514" y="497" style="font-family:Arial;font-size:11.00;">name : string</text></a><polygon style="fill:none;stroke:#a30036;" points="479,501 479,486 587,486 587,501 479,501"/></g><!-- 745144703&#45;&gt;1995898066 --><g id="edge10" class="edge"><title>745144703&#45;&gt;1995898066</title><a xlink:href="platform%3A%2Fresource%2FRepository%2Fmgiml%2Fmgiml.uml%23_Syam8NwPEeGylJ60vDoYdA" xlink:title="materialForm\n1..1"><path style="fill:none;stroke:#a30036;" d="M463,390C470,394 476,398 482,403 495,414 506,429 515,442"/><polygon style="fill:#a30036;stroke:#a30036;" points="463,390 459,383 452,384 455,390 463,390"/><polygon style="fill:#a30036;stroke:#a30036;" points="520,451 519,440 519,448 515,442 519,448 511,444 520,451 520,451"/><text text-anchor="middle" x="531" y="412" style="font-family:Arial;font-size:10.00;">materialForm</text><text text-anchor="middle" x="531" y="424" style="font-family:Arial;font-size:10.00;">1..1</text></a></g><!-- 594117011 --><g id="node7" class="node"><title>594117011</title><polygon style="fill:#ffffcc;stroke:#ffffcc;" points="319,507 319,445 461,445 461,507 319,507"/><a xlink:href="platform%3A%2Fresource%2FRepository%2Fmgiml%2Fmgiml.uml%23_skF1QNwPEeGylJ60vDoYdA" xlink:title="ChemicalSubstance"><clipPath id="mypathfile:/C:/Program%20Files/Eclipse_indigo/configuration/org.eclipse.osgi/bundles/953/1/.cp/icons/full/obj16/Class.gif594117011"><polygon points="336,448 320,448 320,465 336,465 336,448 "/></clipPath><image xlink:href="file:/C:/Program%20Files/Eclipse_indigo/configuration/org.eclipse.osgi/bundles/953/1/.cp/icons/full/obj16/Class.gif" width="16px" height="17px" preserveAspectRatio="xMidYMid meet" x="320" y="448" clip-path="url(#mypathfile:/C:/Program%20Files/Eclipse_indigo/configuration/org.eclipse.osgi/bundles/953/1/.cp/icons/full/obj16/Class.gif594117011)"/><text text-anchor="middle" x="398" y="461" style="font-family:Arial;font-size:13.00;">ChemicalSubstance</text><text text-anchor="middle" x="390" y="476" style="font-family:Arial;font-size:10.00;">(from mgiml)</text><polygon style="fill:none;stroke:#a30036;" points="319,480 319,445 461,445 461,480 319,480"/></a><a xlink:href="platform%3A%2Fresource%2FRepository%2Fmgiml%2Fmgiml.uml%23_tV5ssNwPEeGylJ60vDoYdA" xlink:title="chemicalFormula"><text text-anchor="middle" x="382" y="491" style="font-family:Arial;font-size:11.00;">chemicalFormula : string</text></a><a xlink:href="platform%3A%2Fresource%2FRepository%2Fmgiml%2Fmgiml.uml%23_yUKWcNwPEeGylJ60vDoYdA" xlink:title="name"><text text-anchor="middle" x="354" y="503" style="font-family:Arial;font-size:11.00;">name : string</text></a><polygon style="fill:none;stroke:#a30036;" points="319,507 319,480 461,480 461,507 319,507"/></g><!-- 745144703&#45;&gt;594117011 --><g id="edge12" class="edge"><title>745144703&#45;&gt;594117011</title><a xlink:href="platform%3A%2Fresource%2FRepository%2Fmgiml%2Fmgiml.uml%23_iQs7kP0ZEeGZGsQdVxOQnQ" xlink:title="chemicalSubstance\n1..*"><path style="fill:none;stroke:#a30036;" d="M390,397C390,409 390,423 390,435"/><polygon style="fill:#a30036;stroke:#a30036;" points="390,397 394,391 390,385 386,391 390,397"/><polygon style="fill:#a30036;stroke:#a30036;" points="390,445 395,435 390,442 390,435 390,442 386,435 390,445 390,445"/><text text-anchor="middle" x="434" y="412" style="font-family:Arial;font-size:10.00;">chemicalSubstance</text><text text-anchor="middle" x="434" y="424" style="font-family:Arial;font-size:10.00;">1..*</text></a></g><!-- 1659657524&#45;&gt;745144703 --><g id="edge16" class="edge"><title>1659657524&#45;&gt;745144703</title><a xlink:href="platform%3A%2Fresource%2FRepository%2Fmgiml%2Fmgiml.uml%23_GwstwP0aEeGZGsQdVxOQnQ" xlink:title="phaseComposition\n1..1"><path style="fill:none;stroke:#a30036;" d="M265,286C273,297 282,309 293,317 300,323 310,329 319,334"/><polygon style="fill:#a30036;stroke:#a30036;" points="265,286 265,278 259,275 258,282 265,286"/><polygon style="fill:#a30036;stroke:#a30036;" points="328,338 321,330 325,337 319,334 325,337 317,338 328,338 328,338"/><text text-anchor="middle" x="335" y="302" style="font-family:Arial;font-size:10.00;">phaseComposition</text><text text-anchor="middle" x="335" y="314" style="font-family:Arial;font-size:10.00;">1..1</text></a></g><!-- 810768757 --><g id="node8" class="node"><title>810768757</title><polygon style="fill:#ffffcc;stroke:#ffffcc;" points="139,385 139,335 259,335 259,385 139,385"/><a xlink:href="platform%3A%2Fresource%2FRepository%2Fmgiml%2Fmgiml.uml%23_Ra_K5Nc2EeGqj6dbAaQw_w" xlink:title="CrystalStructure"><clipPath id="mypathfile:/C:/Program%20Files/Eclipse_indigo/configuration/org.eclipse.osgi/bundles/953/1/.cp/icons/full/obj16/Class.gif810768757"><polygon points="156,338 140,338 140,355 156,355 156,338 "/></clipPath><image xlink:href="file:/C:/Program%20Files/Eclipse_indigo/configuration/org.eclipse.osgi/bundles/953/1/.cp/icons/full/obj16/Class.gif" width="16px" height="17px" preserveAspectRatio="xMidYMid meet" x="140" y="338" clip-path="url(#mypathfile:/C:/Program%20Files/Eclipse_indigo/configuration/org.eclipse.osgi/bundles/953/1/.cp/icons/full/obj16/Class.gif810768757)"/><text text-anchor="middle" x="208" y="351" style="font-family:Arial;font-size:13.00;">CrystalStructure</text><text text-anchor="middle" x="199" y="366" style="font-family:Arial;font-size:10.00;">(from mgiml)</text><polygon style="fill:none;stroke:#a30036;" points="139,370 139,335 259,335 259,370 139,370"/></a><a xlink:href="platform%3A%2Fresource%2FRepository%2Fmgiml%2Fmgiml.uml%23_TTM1QNwOEeGylJ60vDoYdA" xlink:title="name"><text text-anchor="middle" x="174" y="381" style="font-family:Arial;font-size:11.00;">name : string</text></a><polygon style="fill:none;stroke:#a30036;" points="139,385 139,370 259,370 259,385 139,385"/></g><!-- 1659657524&#45;&gt;810768757 --><g id="edge14" class="edge"><title>1659657524&#45;&gt;810768757</title><a xlink:href="platform%3A%2Fresource%2FRepository%2Fmgiml%2Fmgiml.uml%23_Ra_K49c2EeGqj6dbAaQw_w" xlink:title="crystalStructure\n1..1"><path style="fill:none;stroke:#a30036;" d="M205,285C203,287 201,290 200,293 195,303 194,314 195,325"/><polygon style="fill:#a30036;stroke:#a30036;" points="206,284 212,282 213,275 206,277 206,284"/><polygon style="fill:#a30036;stroke:#a30036;" points="195,335 200,325 195,332 195,325 195,332 191,325 195,335 195,335"/><text text-anchor="middle" x="238" y="302" style="font-family:Arial;font-size:10.00;">crystalStructure</text><text text-anchor="middle" x="238" y="314" style="font-family:Arial;font-size:10.00;">1..1</text></a></g><!-- 594117011&#45;&gt;2035899821 --><g id="edge22" class="edge"><title>594117011&#45;&gt;2035899821</title><a xlink:href="platform%3A%2Fresource%2FRepository%2Fmgiml%2Fmgiml.uml%23_9TUNUP0ZEeGZGsQdVxOQnQ" xlink:title="bulkFraction\n0..1"><path style="fill:none;stroke:#a30036;" d="M308,512C260,533 201,558 163,576"/><polygon style="fill:#a30036;stroke:#a30036;" points="308,512 315,513 319,507 312,506 308,512"/><polygon style="fill:#a30036;stroke:#a30036;" points="154,580 165,580 157,579 163,576 157,579 161,572 154,580 154,580"/><text text-anchor="middle" x="310" y="534" style="font-family:Arial;font-size:10.00;">bulkFraction</text><text text-anchor="middle" x="310" y="546" style="font-family:Arial;font-size:10.00;">0..1</text></a></g><!-- 2127223611 --><g id="node9" class="node"><title>2127223611</title><polygon style="fill:#ffffcc;stroke:#ffffcc;" points="420,617 420,567 538,567 538,617 420,617"/><a xlink:href="platform%3A%2Fresource%2FRepository%2Fmgiml%2Fmgiml.uml%23_9bHcwNwPEeGylJ60vDoYdA" xlink:title="CatalogNumber"><clipPath id="mypathfile:/C:/Program%20Files/Eclipse_indigo/configuration/org.eclipse.osgi/bundles/953/1/.cp/icons/full/obj16/Class.gif2127223611"><polygon points="437,570 421,570 421,587 437,587 437,570 "/></clipPath><image xlink:href="file:/C:/Program%20Files/Eclipse_indigo/configuration/org.eclipse.osgi/bundles/953/1/.cp/icons/full/obj16/Class.gif" width="16px" height="17px" preserveAspectRatio="xMidYMid meet" x="421" y="570" clip-path="url(#mypathfile:/C:/Program%20Files/Eclipse_indigo/configuration/org.eclipse.osgi/bundles/953/1/.cp/icons/full/obj16/Class.gif2127223611)"/><text text-anchor="middle" x="488" y="583" style="font-family:Arial;font-size:13.00;">CatalogNumber</text><text text-anchor="middle" x="479" y="598" style="font-family:Arial;font-size:10.00;">(from mgiml)</text><polygon style="fill:none;stroke:#a30036;" points="420,602 420,567 538,567 538,602 420,602"/></a><a xlink:href="platform%3A%2Fresource%2FRepository%2Fmgiml%2Fmgiml.uml%23_&#45;UPdINwPEeGylJ60vDoYdA" xlink:title="id"><text text-anchor="middle" x="445" y="613" style="font-family:Arial;font-size:11.00;">id : string</text></a><polygon style="fill:none;stroke:#a30036;" points="420,617 420,602 538,602 538,617 420,617"/></g><!-- 594117011&#45;&gt;2127223611 --><g id="edge18" class="edge"><title>594117011&#45;&gt;2127223611</title><a xlink:href="platform%3A%2Fresource%2FRepository%2Fmgiml%2Fmgiml.uml%23_g8SPMNwQEeGylJ60vDoYdA" xlink:title="catalogNumber\n0..*"><path style="fill:none;stroke:#a30036;" d="M421,517C432,530 443,546 454,559"/><polygon style="fill:#a30036;stroke:#a30036;" points="421,517 421,510 414,507 414,514 421,517"/><polygon style="fill:#a30036;stroke:#a30036;" points="460,567 458,556 458,565 454,559 458,565 450,562 460,567 460,567"/><text text-anchor="middle" x="478" y="534" style="font-family:Arial;font-size:10.00;">catalogNumber</text><text text-anchor="middle" x="478" y="546" style="font-family:Arial;font-size:10.00;">0..*</text></a></g><!-- 223296762 --><g id="node10" class="node"><title>223296762</title><polygon style="fill:#ffffcc;stroke:#ffffcc;" points="274,617 274,567 402,567 402,617 274,617"/><a xlink:href="platform%3A%2Fresource%2FRepository%2Fmgiml%2Fmgiml.uml%23_nFAg8NwQEeGylJ60vDoYdA" xlink:title="ChemicalElement"><clipPath id="mypathfile:/C:/Program%20Files/Eclipse_indigo/configuration/org.eclipse.osgi/bundles/953/1/.cp/icons/full/obj16/Class.gif223296762"><polygon points="291,570 275,570 275,587 291,587 291,570 "/></clipPath><image xlink:href="file:/C:/Program%20Files/Eclipse_indigo/configuration/org.eclipse.osgi/bundles/953/1/.cp/icons/full/obj16/Class.gif" width="16px" height="17px" preserveAspectRatio="xMidYMid meet" x="275" y="570" clip-path="url(#mypathfile:/C:/Program%20Files/Eclipse_indigo/configuration/org.eclipse.osgi/bundles/953/1/.cp/icons/full/obj16/Class.gif223296762)"/><text text-anchor="middle" x="346" y="583" style="font-family:Arial;font-size:13.00;">ChemicalElement</text><text text-anchor="middle" x="338" y="598" style="font-family:Arial;font-size:10.00;">(from mgiml)</text><polygon style="fill:none;stroke:#a30036;" points="274,602 274,567 402,567 402,602 274,602"/></a><a xlink:href="platform%3A%2Fresource%2FRepository%2Fmgiml%2Fmgiml.uml%23_ofCO8NwQEeGylJ60vDoYdA" xlink:title="chemicalSymbol"><text text-anchor="middle" x="335" y="613" style="font-family:Arial;font-size:11.00;">chemicalSymbol : string</text></a><polygon style="fill:none;stroke:#a30036;" points="274,617 274,602 402,602 402,617 274,617"/></g><!-- 594117011&#45;&gt;223296762 --><g id="edge20" class="edge"><title>594117011&#45;&gt;223296762</title><a xlink:href="platform%3A%2Fresource%2FRepository%2Fmgiml%2Fmgiml.uml%23_wiUv8NwQEeGylJ60vDoYdA" xlink:title="elements\n1..*"><path style="fill:none;stroke:#a30036;" d="M371,518C365,531 359,545 353,558"/><polygon style="fill:#a30036;stroke:#a30036;" points="371,518 377,514 376,507 370,511 371,518"/><polygon style="fill:#a30036;stroke:#a30036;" points="349,567 357,560 350,564 353,558 350,564 349,556 349,567 349,567"/><text text-anchor="middle" x="389" y="534" style="font-family:Arial;font-size:10.00;">elements</text><text text-anchor="middle" x="389" y="546" style="font-family:Arial;font-size:10.00;">1..*</text></a></g><!-- 1091935955 --><g id="node11" class="node"><title>1091935955</title><polygon style="fill:#ffffcc;stroke:#ffffcc;" points="51,501 51,451 151,451 151,501 51,501"/><a xlink:href="platform%3A%2Fresource%2FRepository%2Fmgiml%2Fmgiml.uml%23_pU61cNwNEeGylJ60vDoYdA" xlink:title="SpaceGroup"><clipPath id="mypathfile:/C:/Program%20Files/Eclipse_indigo/configuration/org.eclipse.osgi/bundles/953/1/.cp/icons/full/obj16/Class.gif1091935955"><polygon points="68,454 52,454 52,471 68,471 68,454 "/></clipPath><image xlink:href="file:/C:/Program%20Files/Eclipse_indigo/configuration/org.eclipse.osgi/bundles/953/1/.cp/icons/full/obj16/Class.gif" width="16px" height="17px" preserveAspectRatio="xMidYMid meet" x="52" y="454" clip-path="url(#mypathfile:/C:/Program%20Files/Eclipse_indigo/configuration/org.eclipse.osgi/bundles/953/1/.cp/icons/full/obj16/Class.gif1091935955)"/><text text-anchor="middle" x="110" y="467" style="font-family:Arial;font-size:13.00;">SpaceGroup</text><text text-anchor="middle" x="101" y="482" style="font-family:Arial;font-size:10.00;">(from mgiml)</text><polygon style="fill:none;stroke:#a30036;" points="51,486 51,451 151,451 151,486 51,486"/></a><a xlink:href="platform%3A%2Fresource%2FRepository%2Fmgiml%2Fmgiml.uml%23_qfjckNwNEeGylJ60vDoYdA" xlink:title="name"><text text-anchor="middle" x="86" y="497" style="font-family:Arial;font-size:11.00;">name : string</text></a><polygon style="fill:none;stroke:#a30036;" points="51,501 51,486 151,486 151,501 51,501"/></g><!-- 810768757&#45;&gt;1091935955 --><g id="edge24" class="edge"><title>810768757&#45;&gt;1091935955</title><a xlink:href="platform%3A%2Fresource%2FRepository%2Fmgiml%2Fmgiml.uml%23_Gl9toNwOEeGylJ60vDoYdA" xlink:title="spaceGroup\n0..1"><path style="fill:none;stroke:#a30036;" d="M163,394C160,397 158,400 155,403 144,415 134,430 124,443"/><polygon style="fill:#a30036;stroke:#a30036;" points="164,393 171,392 172,385 165,386 164,393"/><polygon style="fill:#a30036;stroke:#a30036;" points="118,451 128,446 120,449 124,443 120,449 120,440 118,451 118,451"/><text text-anchor="middle" x="186" y="412" style="font-family:Arial;font-size:10.00;">spaceGroup</text><text text-anchor="middle" x="186" y="424" style="font-family:Arial;font-size:10.00;">0..1</text></a></g><!-- 675804315 --><g id="node12" class="node"><title>675804315</title><polygon style="fill:#ffffcc;stroke:#ffffcc;" points="169,501 169,451 301,451 301,501 169,501"/><a xlink:href="platform%3A%2Fresource%2FRepository%2Fmgiml%2Fmgiml.uml%23_wJpRkNwNEeGylJ60vDoYdA" xlink:title="WyckoffSequence"><clipPath id="mypathfile:/C:/Program%20Files/Eclipse_indigo/configuration/org.eclipse.osgi/bundles/953/1/.cp/icons/full/obj16/Class.gif675804315"><polygon points="186,454 170,454 170,471 186,471 186,454 "/></clipPath><image xlink:href="file:/C:/Program%20Files/Eclipse_indigo/configuration/org.eclipse.osgi/bundles/953/1/.cp/icons/full/obj16/Class.gif" width="16px" height="17px" preserveAspectRatio="xMidYMid meet" x="170" y="454" clip-path="url(#mypathfile:/C:/Program%20Files/Eclipse_indigo/configuration/org.eclipse.osgi/bundles/953/1/.cp/icons/full/obj16/Class.gif675804315)"/><text text-anchor="middle" x="244" y="467" style="font-family:Arial;font-size:13.00;">WyckoffSequence</text><text text-anchor="middle" x="235" y="482" style="font-family:Arial;font-size:10.00;">(from mgiml)</text><polygon style="fill:none;stroke:#a30036;" points="169,486 169,451 301,451 301,486 169,486"/></a><a xlink:href="platform%3A%2Fresource%2FRepository%2Fmgiml%2Fmgiml.uml%23_xLxc8NwNEeGylJ60vDoYdA" xlink:title="name"><text text-anchor="middle" x="204" y="497" style="font-family:Arial;font-size:11.00;">name : string</text></a><polygon style="fill:none;stroke:#a30036;" points="169,501 169,486 301,486 301,501 169,501"/></g><!-- 810768757&#45;&gt;675804315 --><g id="edge26" class="edge"><title>810768757&#45;&gt;675804315</title><a xlink:href="platform%3A%2Fresource%2FRepository%2Fmgiml%2Fmgiml.uml%23_H4244NwOEeGylJ60vDoYdA" xlink:title="wyckoffSequence\n0..1"><path style="fill:none;stroke:#a30036;" d="M211,397C215,411 220,427 224,441"/><polygon style="fill:#a30036;stroke:#a30036;" points="211,396 213,389 207,385 205,392 211,396"/><polygon style="fill:#a30036;stroke:#a30036;" points="227,451 228,440 226,448 224,441 226,448 220,443 227,451 227,451"/><text text-anchor="middle" x="260" y="412" style="font-family:Arial;font-size:10.00;">wyckoffSequence</text><text text-anchor="middle" x="260" y="424" style="font-family:Arial;font-size:10.00;">0..1</text></a></g><!-- 1267893468 --><g id="node13" class="node"><title>1267893468</title><polygon style="fill:#ffffcc;stroke:#ffffcc;" points="431,727 431,677 527,677 527,727 431,727"/><a xlink:href="platform%3A%2Fresource%2FRepository%2Fmgiml%2Fmgiml.uml%23_XeuvoNwQEeGylJ60vDoYdA" xlink:title="CatalogTitle"><clipPath id="mypathfile:/C:/Program%20Files/Eclipse_indigo/configuration/org.eclipse.osgi/bundles/953/1/.cp/icons/full/obj16/Class.gif1267893468"><polygon points="448,680 432,680 432,697 448,697 448,680 "/></clipPath><image xlink:href="file:/C:/Program%20Files/Eclipse_indigo/configuration/org.eclipse.osgi/bundles/953/1/.cp/icons/full/obj16/Class.gif" width="16px" height="17px" preserveAspectRatio="xMidYMid meet" x="432" y="680" clip-path="url(#mypathfile:/C:/Program%20Files/Eclipse_indigo/configuration/org.eclipse.osgi/bundles/953/1/.cp/icons/full/obj16/Class.gif1267893468)"/><text text-anchor="middle" x="487" y="693" style="font-family:Arial;font-size:13.00;">CatalogTitle</text><text text-anchor="middle" x="479" y="708" style="font-family:Arial;font-size:10.00;">(from mgiml)</text><polygon style="fill:none;stroke:#a30036;" points="431,712 431,677 527,677 527,712 431,712"/></a><a xlink:href="platform%3A%2Fresource%2FRepository%2Fmgiml%2Fmgiml.uml%23_YRIc8NwQEeGylJ60vDoYdA" xlink:title="name"><text text-anchor="middle" x="466" y="723" style="font-family:Arial;font-size:11.00;">name : string</text></a><polygon style="fill:none;stroke:#a30036;" points="431,727 431,712 527,712 527,727 431,727"/></g><!-- 2127223611&#45;&gt;1267893468 --><g id="edge28" class="edge"><title>2127223611&#45;&gt;1267893468</title><a xlink:href="platform%3A%2Fresource%2FRepository%2Fmgiml%2Fmgiml.uml%23_bF5qoNwQEeGylJ60vDoYdA" xlink:title="catalogTitle\n1..1"><path style="fill:none;stroke:#a30036;" d="M479,629C479,641 479,655 479,667"/><polygon style="fill:#a30036;stroke:#a30036;" points="479,629 483,623 479,617 475,623 479,629"/><polygon style="fill:#a30036;stroke:#a30036;" points="479,677 484,667 479,674 479,667 479,674 475,667 479,677 479,677"/><text text-anchor="middle" x="505" y="644" style="font-family:Arial;font-size:10.00;">catalogTitle</text><text text-anchor="middle" x="505" y="656" style="font-family:Arial;font-size:10.00;">1..1</text></a></g></g></svg>