<?xml version="1.0" encoding="UTF-8" standalone="no"?><!DOCTYPE svg PUBLIC "-//W3C//DTD SVG 1.0//EN" "http://www.w3.org/TR/2001/REC-SVG-20010904/DTD/svg10.dtd" [ <!ATTLIST svg xmlns:xlink CDATA #FIXED "http://www.w3.org/1999/xlink">]><!-- Generated by dot version 2.7.20051103.0540 (Thu Nov  3 05:48:38 UTC 2005)     For user: Bill Gates --><!-- Title: uml Pages: 1 --><svg width="583pt" height="622pt" viewBox = "0 0 583 622" xmlns="http://www.w3.org/2000/svg" xmlns:xlink="http://www.w3.org/1999/xlink"><g id="graph0" class="graph" style="font-family:Times-Roman;font-size:14.00;"><title>uml</title><polygon style="fill:white;stroke:white;" points="-1,623 -1,-1 584,-1 584,623 -1,623"/><!-- 1917491973 --><g id="node1" class="node"><title>1917491973</title><a xlink:href="platform%3A%2Fresource%2FRepository%2Fmgiml%2Fmgiml.uml%23_Ra32Idc2EeGqj6dbAaQw_w" xlink:title="Quantity"><polygon style="fill:#e0ffff;stroke:#a30036;stroke-dasharray:5,2;" points="210,237 154,237 154,263 210,263 210,237"/><text text-anchor="middle" x="182" y="254" style="font-family:Arial;font-size:11.00;">Quantity</text></a></g><!-- 333506075 --><g id="node2" class="node"><title>333506075</title><polygon style="fill:#ffffcc;stroke:#ffffcc;" points="160,55 160,5 270,5 270,55 160,55"/><a xlink:href="platform%3A%2Fresource%2FRepository%2Fmgiml%2Fmgiml.uml%23_Ra98ydc2EeGqj6dbAaQw_w" xlink:title="Material"><clipPath id="mypathfile:/C:/Program%20Files/Eclipse_indigo/configuration/org.eclipse.osgi/bundles/953/1/.cp/icons/full/obj16/Class.gif333506075"><polygon points="177,8 161,8 161,25 177,25 177,8 "/></clipPath><image xlink:href="file:/C:/Program%20Files/Eclipse_indigo/configuration/org.eclipse.osgi/bundles/953/1/.cp/icons/full/obj16/Class.gif" width="16px" height="17px" preserveAspectRatio="xMidYMid meet" x="161" y="8" clip-path="url(#mypathfile:/C:/Program%20Files/Eclipse_indigo/configuration/org.eclipse.osgi/bundles/953/1/.cp/icons/full/obj16/Class.gif333506075)"/><text text-anchor="middle" x="224" y="21" style="font-family:Arial;font-size:13.00;">Material</text><text text-anchor="middle" x="215" y="36" style="font-family:Arial;font-size:10.00;">(from mgiml)</text><polygon style="fill:none;stroke:#a30036;" points="160,40 160,5 270,5 270,40 160,40"/></a><a xlink:href="platform%3A%2Fresource%2FRepository%2Fmgiml%2Fmgiml.uml%23_et5HENs2EeG4nL&#45;0zQ4x_w" xlink:title="materialName"><text text-anchor="middle" x="215" y="51" style="font-family:Arial;font-size:11.00;">materialName : string</text></a><polygon style="fill:none;stroke:#a30036;" points="160,55 160,40 270,40 270,55 160,55"/></g><!-- 119419102 --><g id="node3" class="node"><title>119419102</title><polygon style="fill:#ffffcc;stroke:#ffffcc;" points="103,165 103,115 173,115 173,165 103,165"/><a xlink:href="platform%3A%2Fresource%2FRepository%2Fmgiml%2Fmgiml.uml%23_Ra&#45;j2dc2EeGqj6dbAaQw_w" xlink:title="Phases"><clipPath id="mypathfile:/C:/Program%20Files/Eclipse_indigo/configuration/org.eclipse.osgi/bundles/953/1/.cp/icons/full/obj16/Class.gif119419102"><polygon points="120,118 104,118 104,135 120,135 120,118 "/></clipPath><image xlink:href="file:/C:/Program%20Files/Eclipse_indigo/configuration/org.eclipse.osgi/bundles/953/1/.cp/icons/full/obj16/Class.gif" width="16px" height="17px" preserveAspectRatio="xMidYMid meet" x="104" y="118" clip-path="url(#mypathfile:/C:/Program%20Files/Eclipse_indigo/configuration/org.eclipse.osgi/bundles/953/1/.cp/icons/full/obj16/Class.gif119419102)"/><text text-anchor="middle" x="146" y="131" style="font-family:Arial;font-size:13.00;">Phases</text><text text-anchor="middle" x="138" y="146" style="font-family:Arial;font-size:10.00;">(from mgiml)</text><polygon style="fill:none;stroke:#a30036;" points="103,150 103,115 173,115 173,150 103,150"/></a><text text-anchor="middle" x="138" y="161" style="font-family:Arial;font-size:11.00;"> </text><polygon style="fill:none;stroke:#a30036;" points="103,165 103,150 173,150 173,165 103,165"/></g><!-- 333506075&#45;&gt;119419102 --><g id="edge2" class="edge"><title>333506075&#45;&gt;119419102</title><a xlink:href="platform%3A%2Fresource%2FRepository%2Fmgiml%2Fmgiml.uml%23_Ra98ytc2EeGqj6dbAaQw_w" xlink:title="phases\n1..1"><path style="fill:none;stroke:#a30036;" d="M190,65C181,78 171,93 162,107"/><polygon style="fill:#a30036;stroke:#a30036;" points="190,65 197,62 197,55 190,58 190,65"/><polygon style="fill:#a30036;stroke:#a30036;" points="156,115 166,110 158,113 162,107 158,113 158,104 156,115 156,115"/><text text-anchor="middle" x="203" y="82" style="font-family:Arial;font-size:10.00;">phases</text><text text-anchor="middle" x="203" y="94" style="font-family:Arial;font-size:10.00;">1..1</text></a></g><!-- 443812090 --><g id="node4" class="node"><title>443812090</title><polygon style="fill:#ffffcc;stroke:#ffffcc;" points="212,165 212,115 336,115 336,165 212,165"/><a xlink:href="platform%3A%2Fresource%2FRepository%2Fmgiml%2Fmgiml.uml%23_Ra_x99c2EeGqj6dbAaQw_w" xlink:title="BulkComposition"><clipPath id="mypathfile:/C:/Program%20Files/Eclipse_indigo/configuration/org.eclipse.osgi/bundles/953/1/.cp/icons/full/obj16/Class.gif443812090"><polygon points="229,118 213,118 213,135 229,135 229,118 "/></clipPath><image xlink:href="file:/C:/Program%20Files/Eclipse_indigo/configuration/org.eclipse.osgi/bundles/953/1/.cp/icons/full/obj16/Class.gif" width="16px" height="17px" preserveAspectRatio="xMidYMid meet" x="213" y="118" clip-path="url(#mypathfile:/C:/Program%20Files/Eclipse_indigo/configuration/org.eclipse.osgi/bundles/953/1/.cp/icons/full/obj16/Class.gif443812090)"/><text text-anchor="middle" x="282" y="131" style="font-family:Arial;font-size:13.00;">BulkComposition</text><text text-anchor="middle" x="274" y="146" style="font-family:Arial;font-size:10.00;">(from mgiml)</text><polygon style="fill:none;stroke:#a30036;" points="212,150 212,115 336,115 336,150 212,150"/></a><text text-anchor="middle" x="274" y="161" style="font-family:Arial;font-size:11.00;"> </text><polygon style="fill:none;stroke:#a30036;" points="212,165 212,150 336,150 336,165 212,165"/></g><!-- 333506075&#45;&gt;443812090 --><g id="edge4" class="edge"><title>333506075&#45;&gt;443812090</title><a xlink:href="platform%3A%2Fresource%2FRepository%2Fmgiml%2Fmgiml.uml%23_Ra_x9tc2EeGqj6dbAaQw_w" xlink:title="bulkComposition\n1..1"><path style="fill:none;stroke:#a30036;" d="M235,66C241,79 249,93 256,106"/><polygon style="fill:#a30036;stroke:#a30036;" points="235,66 235,58 229,55 228,62 235,66"/><polygon style="fill:#a30036;stroke:#a30036;" points="261,115 260,104 260,112 256,106 260,112 252,108 261,115 261,115"/><text text-anchor="middle" x="289" y="82" style="font-family:Arial;font-size:10.00;">bulkComposition</text><text text-anchor="middle" x="289" y="94" style="font-family:Arial;font-size:10.00;">1..1</text></a></g><!-- 119419102&#45;&gt;1917491973 --><g id="edge6" class="edge"><title>119419102&#45;&gt;1917491973</title><a xlink:href="platform%3A%2Fresource%2FRepository%2Fmgiml%2Fmgiml.uml%23_MzGVcNs2EeG4nL&#45;0zQ4x_w" xlink:title="temperature\n0..1"><path style="fill:none;stroke:#a30036;" d="M134,177C134,187 135,198 139,207 143,216 149,223 155,229"/><polygon style="fill:#a30036;stroke:#a30036;" points="134,177 138,171 134,165 130,171 134,177"/><polygon style="fill:#a30036;stroke:#a30036;" points="163,236 158,226 161,234 155,229 161,234 153,233 163,236 163,236"/><text text-anchor="middle" x="167" y="192" style="font-family:Arial;font-size:10.00;">temperature</text><text text-anchor="middle" x="167" y="204" style="font-family:Arial;font-size:10.00;">0..1</text></a></g><!-- 871773621 --><g id="node5" class="node"><title>871773621</title><polygon style="fill:#ffffcc;stroke:#ffffcc;" points="52,275 52,225 122,225 122,275 52,275"/><a xlink:href="platform%3A%2Fresource%2FRepository%2Fmgiml%2Fmgiml.uml%23_Ra&#45;j29c2EeGqj6dbAaQw_w" xlink:title="Phase"><clipPath id="mypathfile:/C:/Program%20Files/Eclipse_indigo/configuration/org.eclipse.osgi/bundles/953/1/.cp/icons/full/obj16/Class.gif871773621"><polygon points="69,228 53,228 53,245 69,245 69,228 "/></clipPath><image xlink:href="file:/C:/Program%20Files/Eclipse_indigo/configuration/org.eclipse.osgi/bundles/953/1/.cp/icons/full/obj16/Class.gif" width="16px" height="17px" preserveAspectRatio="xMidYMid meet" x="53" y="228" clip-path="url(#mypathfile:/C:/Program%20Files/Eclipse_indigo/configuration/org.eclipse.osgi/bundles/953/1/.cp/icons/full/obj16/Class.gif871773621)"/><text text-anchor="middle" x="96" y="241" style="font-family:Arial;font-size:13.00;">Phase</text><text text-anchor="middle" x="87" y="256" style="font-family:Arial;font-size:10.00;">(from mgiml)</text><polygon style="fill:none;stroke:#a30036;" points="52,260 52,225 122,225 122,260 52,260"/></a><a xlink:href="platform%3A%2Fresource%2FRepository%2Fmgiml%2Fmgiml.uml%23_Ra&#45;j3Nc2EeGqj6dbAaQw_w" xlink:title="name"><text text-anchor="middle" x="87" y="271" style="font-family:Arial;font-size:11.00;">name : string</text></a><polygon style="fill:none;stroke:#a30036;" points="52,275 52,260 122,260 122,275 52,275"/></g><!-- 119419102&#45;&gt;871773621 --><g id="edge8" class="edge"><title>119419102&#45;&gt;871773621</title><a xlink:href="platform%3A%2Fresource%2FRepository%2Fmgiml%2Fmgiml.uml%23_Ra&#45;j2tc2EeGqj6dbAaQw_w" xlink:title="phase\n1..*"><path style="fill:none;stroke:#a30036;" d="M108,175C106,178 104,180 103,183 98,193 95,204 93,215"/><polygon style="fill:#a30036;stroke:#a30036;" points="108,175 115,172 115,165 108,168 108,175"/><polygon style="fill:#a30036;stroke:#a30036;" points="91,225 97,216 92,222 93,215 92,222 89,214 91,225 91,225"/><text text-anchor="middle" x="120" y="192" style="font-family:Arial;font-size:10.00;">phase</text><text text-anchor="middle" x="120" y="204" style="font-family:Arial;font-size:10.00;">1..*</text></a></g><!-- 443812090&#45;&gt;1917491973 --><g id="edge12" class="edge"><title>443812090&#45;&gt;1917491973</title><a xlink:href="platform%3A%2Fresource%2FRepository%2Fmgiml%2Fmgiml.uml%23_boUQoNwPEeGylJ60vDoYdA" xlink:title="bulkFraction\n1..1"><path style="fill:none;stroke:#a30036;" d="M233,174C230,177 227,180 224,183 213,197 202,214 194,227"/><polygon style="fill:#a30036;stroke:#a30036;" points="234,173 241,172 242,165 235,166 234,173"/><polygon style="fill:#a30036;stroke:#a30036;" points="189,236 198,229 190,233 194,227 190,233 190,225 189,236 189,236"/><text text-anchor="middle" x="255" y="192" style="font-family:Arial;font-size:10.00;">bulkFraction</text><text text-anchor="middle" x="255" y="204" style="font-family:Arial;font-size:10.00;">1..1</text></a></g><!-- 753833342 --><g id="node6" class="node"><title>753833342</title><polygon style="fill:#ffffcc;stroke:#ffffcc;" points="368,275 368,225 512,225 512,275 368,275"/><a xlink:href="platform%3A%2Fresource%2FRepository%2Fmgiml%2Fmgiml.uml%23_pWR8kNyrEeGBfq3QhBtbtA" xlink:title="ConstituentMaterial"><clipPath id="mypathfile:/C:/Program%20Files/Eclipse_indigo/configuration/org.eclipse.osgi/bundles/953/1/.cp/icons/full/obj16/Class.gif753833342"><polygon points="385,228 369,228 369,245 385,245 385,228 "/></clipPath><image xlink:href="file:/C:/Program%20Files/Eclipse_indigo/configuration/org.eclipse.osgi/bundles/953/1/.cp/icons/full/obj16/Class.gif" width="16px" height="17px" preserveAspectRatio="xMidYMid meet" x="369" y="228" clip-path="url(#mypathfile:/C:/Program%20Files/Eclipse_indigo/configuration/org.eclipse.osgi/bundles/953/1/.cp/icons/full/obj16/Class.gif753833342)"/><text text-anchor="middle" x="448" y="241" style="font-family:Arial;font-size:13.00;">ConstituentMaterial</text><text text-anchor="middle" x="440" y="256" style="font-family:Arial;font-size:10.00;">(from mgiml)</text><polygon style="fill:none;stroke:#a30036;" points="368,260 368,225 512,225 512,260 368,260"/></a><a xlink:href="platform%3A%2Fresource%2FRepository%2Fmgiml%2Fmgiml.uml%23_Ra_x_tc2EeGqj6dbAaQw_w" xlink:title="materialPurity"><text text-anchor="middle" x="440" y="271" style="font-family:Arial;font-size:11.00;">materialPurity : double [0..1]</text></a><polygon style="fill:none;stroke:#a30036;" points="368,275 368,260 512,260 512,275 368,275"/></g><!-- 443812090&#45;&gt;753833342 --><g id="edge10" class="edge"><title>443812090&#45;&gt;753833342</title><a xlink:href="platform%3A%2Fresource%2FRepository%2Fmgiml%2Fmgiml.uml%23_&#45;7E&#45;MNwQEeGylJ60vDoYdA" xlink:title="constituents\n1..*"><path style="fill:none;stroke:#a30036;" d="M335,171C341,175 348,179 354,183 370,194 387,207 402,219"/><polygon style="fill:#a30036;stroke:#a30036;" points="335,171 331,164 324,165 327,171 335,171"/><polygon style="fill:#a30036;stroke:#a30036;" points="410,225 405,215 408,223 402,219 408,223 399,223 410,225 410,225"/><text text-anchor="middle" x="413" y="192" style="font-family:Arial;font-size:10.00;">constituents</text><text text-anchor="middle" x="413" y="204" style="font-family:Arial;font-size:10.00;">1..*</text></a></g><!-- 152576554 --><g id="node7" class="node"><title>152576554</title><polygon style="fill:#ffffcc;stroke:#ffffcc;" points="242,275 242,225 350,225 350,275 242,275"/><a xlink:href="platform%3A%2Fresource%2FRepository%2Fmgiml%2Fmgiml.uml%23_IjFFINwPEeGylJ60vDoYdA" xlink:title="FormOfMatter"><clipPath id="mypathfile:/C:/Program%20Files/Eclipse_indigo/configuration/org.eclipse.osgi/bundles/953/1/.cp/icons/full/obj16/Class.gif152576554"><polygon points="259,228 243,228 243,245 259,245 259,228 "/></clipPath><image xlink:href="file:/C:/Program%20Files/Eclipse_indigo/configuration/org.eclipse.osgi/bundles/953/1/.cp/icons/full/obj16/Class.gif" width="16px" height="17px" preserveAspectRatio="xMidYMid meet" x="243" y="228" clip-path="url(#mypathfile:/C:/Program%20Files/Eclipse_indigo/configuration/org.eclipse.osgi/bundles/953/1/.cp/icons/full/obj16/Class.gif152576554)"/><text text-anchor="middle" x="305" y="241" style="font-family:Arial;font-size:13.00;">FormOfMatter</text><text text-anchor="middle" x="296" y="256" style="font-family:Arial;font-size:10.00;">(from mgiml)</text><polygon style="fill:none;stroke:#a30036;" points="242,260 242,225 350,225 350,260 242,260"/></a><a xlink:href="platform%3A%2Fresource%2FRepository%2Fmgiml%2Fmgiml.uml%23_JkAWoNwPEeGylJ60vDoYdA" xlink:title="name"><text text-anchor="middle" x="277" y="271" style="font-family:Arial;font-size:11.00;">name : string</text></a><polygon style="fill:none;stroke:#a30036;" points="242,275 242,260 350,260 350,275 242,275"/></g><!-- 443812090&#45;&gt;152576554 --><g id="edge14" class="edge"><title>443812090&#45;&gt;152576554</title><a xlink:href="platform%3A%2Fresource%2FRepository%2Fmgiml%2Fmgiml.uml%23_Syam8NwPEeGylJ60vDoYdA" xlink:title="materialForm\n1..1"><path style="fill:none;stroke:#a30036;" d="M282,177C284,189 287,203 289,215"/><polygon style="fill:#a30036;stroke:#a30036;" points="282,177 284,170 279,165 277,172 282,177"/><polygon style="fill:#a30036;stroke:#a30036;" points="291,225 293,214 290,222 289,215 290,222 285,216 291,225 291,225"/><text text-anchor="middle" x="320" y="192" style="font-family:Arial;font-size:10.00;">materialForm</text><text text-anchor="middle" x="320" y="204" style="font-family:Arial;font-size:10.00;">1..1</text></a></g><!-- 914522839 --><g id="node8" class="node"><title>914522839</title><polygon style="fill:#ffffcc;stroke:#ffffcc;" points="27,391 27,341 147,341 147,391 27,391"/><a xlink:href="platform%3A%2Fresource%2FRepository%2Fmgiml%2Fmgiml.uml%23_Ra_K5Nc2EeGqj6dbAaQw_w" xlink:title="CrystalStructure"><clipPath id="mypathfile:/C:/Program%20Files/Eclipse_indigo/configuration/org.eclipse.osgi/bundles/953/1/.cp/icons/full/obj16/Class.gif914522839"><polygon points="44,344 28,344 28,361 44,361 44,344 "/></clipPath><image xlink:href="file:/C:/Program%20Files/Eclipse_indigo/configuration/org.eclipse.osgi/bundles/953/1/.cp/icons/full/obj16/Class.gif" width="16px" height="17px" preserveAspectRatio="xMidYMid meet" x="28" y="344" clip-path="url(#mypathfile:/C:/Program%20Files/Eclipse_indigo/configuration/org.eclipse.osgi/bundles/953/1/.cp/icons/full/obj16/Class.gif914522839)"/><text text-anchor="middle" x="96" y="357" style="font-family:Arial;font-size:13.00;">CrystalStructure</text><text text-anchor="middle" x="87" y="372" style="font-family:Arial;font-size:10.00;">(from mgiml)</text><polygon style="fill:none;stroke:#a30036;" points="27,376 27,341 147,341 147,376 27,376"/></a><a xlink:href="platform%3A%2Fresource%2FRepository%2Fmgiml%2Fmgiml.uml%23_TTM1QNwOEeGylJ60vDoYdA" xlink:title="name"><text text-anchor="middle" x="62" y="387" style="font-family:Arial;font-size:11.00;">name : string</text></a><polygon style="fill:none;stroke:#a30036;" points="27,391 27,376 147,376 147,391 27,391"/></g><!-- 871773621&#45;&gt;914522839 --><g id="edge16" class="edge"><title>871773621&#45;&gt;914522839</title><a xlink:href="platform%3A%2Fresource%2FRepository%2Fmgiml%2Fmgiml.uml%23_Ra_K49c2EeGqj6dbAaQw_w" xlink:title="crystalStructure\n1..1"><path style="fill:none;stroke:#a30036;" d="M87,287C87,301 87,317 87,331"/><polygon style="fill:#a30036;stroke:#a30036;" points="87,287 91,281 87,275 83,281 87,287"/><polygon style="fill:#a30036;stroke:#a30036;" points="87,341 92,331 87,338 87,331 87,338 83,331 87,341 87,341"/><text text-anchor="middle" x="122" y="302" style="font-family:Arial;font-size:10.00;">crystalStructure</text><text text-anchor="middle" x="122" y="314" style="font-family:Arial;font-size:10.00;">1..1</text></a></g><!-- 250362102 --><g id="node9" class="node"><title>250362102</title><polygon style="fill:#ffffcc;stroke:#ffffcc;" points="369,397 369,335 511,335 511,397 369,397"/><a xlink:href="platform%3A%2Fresource%2FRepository%2Fmgiml%2Fmgiml.uml%23_skF1QNwPEeGylJ60vDoYdA" xlink:title="ChemicalSubstance"><clipPath id="mypathfile:/C:/Program%20Files/Eclipse_indigo/configuration/org.eclipse.osgi/bundles/953/1/.cp/icons/full/obj16/Class.gif250362102"><polygon points="386,338 370,338 370,355 386,355 386,338 "/></clipPath><image xlink:href="file:/C:/Program%20Files/Eclipse_indigo/configuration/org.eclipse.osgi/bundles/953/1/.cp/icons/full/obj16/Class.gif" width="16px" height="17px" preserveAspectRatio="xMidYMid meet" x="370" y="338" clip-path="url(#mypathfile:/C:/Program%20Files/Eclipse_indigo/configuration/org.eclipse.osgi/bundles/953/1/.cp/icons/full/obj16/Class.gif250362102)"/><text text-anchor="middle" x="448" y="351" style="font-family:Arial;font-size:13.00;">ChemicalSubstance</text><text text-anchor="middle" x="440" y="366" style="font-family:Arial;font-size:10.00;">(from mgiml)</text><polygon style="fill:none;stroke:#a30036;" points="369,370 369,335 511,335 511,370 369,370"/></a><a xlink:href="platform%3A%2Fresource%2FRepository%2Fmgiml%2Fmgiml.uml%23_tV5ssNwPEeGylJ60vDoYdA" xlink:title="chemicalFormula"><text text-anchor="middle" x="432" y="381" style="font-family:Arial;font-size:11.00;">chemicalFormula : string</text></a><a xlink:href="platform%3A%2Fresource%2FRepository%2Fmgiml%2Fmgiml.uml%23_yUKWcNwPEeGylJ60vDoYdA" xlink:title="name"><text text-anchor="middle" x="404" y="393" style="font-family:Arial;font-size:11.00;">name : string</text></a><polygon style="fill:none;stroke:#a30036;" points="369,397 369,370 511,370 511,397 369,397"/></g><!-- 753833342&#45;&gt;250362102 --><g id="edge18" class="edge"><title>753833342&#45;&gt;250362102</title><a xlink:href="platform%3A%2Fresource%2FRepository%2Fmgiml%2Fmgiml.uml%23_0apB4NyrEeGBfq3QhBtbtA" xlink:title="chemicalSubstance\n1..1"><path style="fill:none;stroke:#a30036;" d="M440,287C440,299 440,313 440,325"/><polygon style="fill:#a30036;stroke:#a30036;" points="440,287 444,281 440,275 436,281 440,287"/><polygon style="fill:#a30036;stroke:#a30036;" points="440,335 445,325 440,332 440,325 440,332 436,325 440,335 440,335"/><text text-anchor="middle" x="484" y="302" style="font-family:Arial;font-size:10.00;">chemicalSubstance</text><text text-anchor="middle" x="484" y="314" style="font-family:Arial;font-size:10.00;">1..1</text></a></g><!-- 308062191 --><g id="node10" class="node"><title>308062191</title><polygon style="fill:#ffffcc;stroke:#ffffcc;" points="5,507 5,457 105,457 105,507 5,507"/><a xlink:href="platform%3A%2Fresource%2FRepository%2Fmgiml%2Fmgiml.uml%23_pU61cNwNEeGylJ60vDoYdA" xlink:title="SpaceGroup"><clipPath id="mypathfile:/C:/Program%20Files/Eclipse_indigo/configuration/org.eclipse.osgi/bundles/953/1/.cp/icons/full/obj16/Class.gif308062191"><polygon points="22,460 6,460 6,477 22,477 22,460 "/></clipPath><image xlink:href="file:/C:/Program%20Files/Eclipse_indigo/configuration/org.eclipse.osgi/bundles/953/1/.cp/icons/full/obj16/Class.gif" width="16px" height="17px" preserveAspectRatio="xMidYMid meet" x="6" y="460" clip-path="url(#mypathfile:/C:/Program%20Files/Eclipse_indigo/configuration/org.eclipse.osgi/bundles/953/1/.cp/icons/full/obj16/Class.gif308062191)"/><text text-anchor="middle" x="64" y="473" style="font-family:Arial;font-size:13.00;">SpaceGroup</text><text text-anchor="middle" x="55" y="488" style="font-family:Arial;font-size:10.00;">(from mgiml)</text><polygon style="fill:none;stroke:#a30036;" points="5,492 5,457 105,457 105,492 5,492"/></a><a xlink:href="platform%3A%2Fresource%2FRepository%2Fmgiml%2Fmgiml.uml%23_qfjckNwNEeGylJ60vDoYdA" xlink:title="name"><text text-anchor="middle" x="40" y="503" style="font-family:Arial;font-size:11.00;">name : string</text></a><polygon style="fill:none;stroke:#a30036;" points="5,507 5,492 105,492 105,507 5,507"/></g><!-- 914522839&#45;&gt;308062191 --><g id="edge20" class="edge"><title>914522839&#45;&gt;308062191</title><a xlink:href="platform%3A%2Fresource%2FRepository%2Fmgiml%2Fmgiml.uml%23_Gl9toNwOEeGylJ60vDoYdA" xlink:title="spaceGroup\n0..1"><path style="fill:none;stroke:#a30036;" d="M77,403C73,417 68,433 65,447"/><polygon style="fill:#a30036;stroke:#a30036;" points="77,403 82,398 80,391 75,396 77,403"/><polygon style="fill:#a30036;stroke:#a30036;" points="62,457 69,449 63,454 65,447 63,454 61,446 62,457 62,457"/><text text-anchor="middle" x="103" y="424" style="font-family:Arial;font-size:10.00;">spaceGroup</text><text text-anchor="middle" x="103" y="436" style="font-family:Arial;font-size:10.00;">0..1</text></a></g><!-- 461016666 --><g id="node11" class="node"><title>461016666</title><polygon style="fill:#ffffcc;stroke:#ffffcc;" points="123,507 123,457 255,457 255,507 123,507"/><a xlink:href="platform%3A%2Fresource%2FRepository%2Fmgiml%2Fmgiml.uml%23_wJpRkNwNEeGylJ60vDoYdA" xlink:title="WyckoffSequence"><clipPath id="mypathfile:/C:/Program%20Files/Eclipse_indigo/configuration/org.eclipse.osgi/bundles/953/1/.cp/icons/full/obj16/Class.gif461016666"><polygon points="140,460 124,460 124,477 140,477 140,460 "/></clipPath><image xlink:href="file:/C:/Program%20Files/Eclipse_indigo/configuration/org.eclipse.osgi/bundles/953/1/.cp/icons/full/obj16/Class.gif" width="16px" height="17px" preserveAspectRatio="xMidYMid meet" x="124" y="460" clip-path="url(#mypathfile:/C:/Program%20Files/Eclipse_indigo/configuration/org.eclipse.osgi/bundles/953/1/.cp/icons/full/obj16/Class.gif461016666)"/><text text-anchor="middle" x="198" y="473" style="font-family:Arial;font-size:13.00;">WyckoffSequence</text><text text-anchor="middle" x="189" y="488" style="font-family:Arial;font-size:10.00;">(from mgiml)</text><polygon style="fill:none;stroke:#a30036;" points="123,492 123,457 255,457 255,492 123,492"/></a><a xlink:href="platform%3A%2Fresource%2FRepository%2Fmgiml%2Fmgiml.uml%23_xLxc8NwNEeGylJ60vDoYdA" xlink:title="name"><text text-anchor="middle" x="158" y="503" style="font-family:Arial;font-size:11.00;">name : string</text></a><polygon style="fill:none;stroke:#a30036;" points="123,507 123,492 255,492 255,507 123,507"/></g><!-- 914522839&#45;&gt;461016666 --><g id="edge22" class="edge"><title>914522839&#45;&gt;461016666</title><a xlink:href="platform%3A%2Fresource%2FRepository%2Fmgiml%2Fmgiml.uml%23_H4244NwOEeGylJ60vDoYdA" xlink:title="wyckoffSequence\n0..1"><path style="fill:none;stroke:#a30036;" d="M120,400C125,405 130,410 134,415 144,426 154,438 163,449"/><polygon style="fill:#a30036;stroke:#a30036;" points="120,400 119,393 112,391 113,398 120,400"/><polygon style="fill:#a30036;stroke:#a30036;" points="169,457 167,446 167,455 163,449 167,455 159,452 169,457 169,457"/><text text-anchor="middle" x="194" y="424" style="font-family:Arial;font-size:10.00;">wyckoffSequence</text><text text-anchor="middle" x="194" y="436" style="font-family:Arial;font-size:10.00;">0..1</text></a></g><!-- 99426974 --><g id="node12" class="node"><title>99426974</title><polygon style="fill:#ffffcc;stroke:#ffffcc;" points="314,507 314,457 432,457 432,507 314,507"/><a xlink:href="platform%3A%2Fresource%2FRepository%2Fmgiml%2Fmgiml.uml%23_9bHcwNwPEeGylJ60vDoYdA" xlink:title="CatalogNumber"><clipPath id="mypathfile:/C:/Program%20Files/Eclipse_indigo/configuration/org.eclipse.osgi/bundles/953/1/.cp/icons/full/obj16/Class.gif99426974"><polygon points="331,460 315,460 315,477 331,477 331,460 "/></clipPath><image xlink:href="file:/C:/Program%20Files/Eclipse_indigo/configuration/org.eclipse.osgi/bundles/953/1/.cp/icons/full/obj16/Class.gif" width="16px" height="17px" preserveAspectRatio="xMidYMid meet" x="315" y="460" clip-path="url(#mypathfile:/C:/Program%20Files/Eclipse_indigo/configuration/org.eclipse.osgi/bundles/953/1/.cp/icons/full/obj16/Class.gif99426974)"/><text text-anchor="middle" x="382" y="473" style="font-family:Arial;font-size:13.00;">CatalogNumber</text><text text-anchor="middle" x="373" y="488" style="font-family:Arial;font-size:10.00;">(from mgiml)</text><polygon style="fill:none;stroke:#a30036;" points="314,492 314,457 432,457 432,492 314,492"/></a><a xlink:href="platform%3A%2Fresource%2FRepository%2Fmgiml%2Fmgiml.uml%23_&#45;UPdINwPEeGylJ60vDoYdA" xlink:title="id"><text text-anchor="middle" x="343" y="503" style="font-family:Arial;font-size:11.00;">id : integer</text></a><polygon style="fill:none;stroke:#a30036;" points="314,507 314,492 432,492 432,507 314,507"/></g><!-- 250362102&#45;&gt;99426974 --><g id="edge24" class="edge"><title>250362102&#45;&gt;99426974</title><a xlink:href="platform%3A%2Fresource%2FRepository%2Fmgiml%2Fmgiml.uml%23_g8SPMNwQEeGylJ60vDoYdA" xlink:title="catalogNumber\n1..1"><path style="fill:none;stroke:#a30036;" d="M416,408C408,421 399,435 392,448"/><polygon style="fill:#a30036;stroke:#a30036;" points="416,408 423,404 422,397 416,400 416,408"/><polygon style="fill:#a30036;stroke:#a30036;" points="387,457 396,450 388,454 392,448 388,454 388,446 387,457 387,457"/><text text-anchor="middle" x="445" y="424" style="font-family:Arial;font-size:10.00;">catalogNumber</text><text text-anchor="middle" x="445" y="436" style="font-family:Arial;font-size:10.00;">1..1</text></a></g><!-- 187969763 --><g id="node13" class="node"><title>187969763</title><polygon style="fill:#ffffcc;stroke:#ffffcc;" points="450,507 450,457 578,457 578,507 450,507"/><a xlink:href="platform%3A%2Fresource%2FRepository%2Fmgiml%2Fmgiml.uml%23_nFAg8NwQEeGylJ60vDoYdA" xlink:title="ChemicalElement"><clipPath id="mypathfile:/C:/Program%20Files/Eclipse_indigo/configuration/org.eclipse.osgi/bundles/953/1/.cp/icons/full/obj16/Class.gif187969763"><polygon points="467,460 451,460 451,477 467,477 467,460 "/></clipPath><image xlink:href="file:/C:/Program%20Files/Eclipse_indigo/configuration/org.eclipse.osgi/bundles/953/1/.cp/icons/full/obj16/Class.gif" width="16px" height="17px" preserveAspectRatio="xMidYMid meet" x="451" y="460" clip-path="url(#mypathfile:/C:/Program%20Files/Eclipse_indigo/configuration/org.eclipse.osgi/bundles/953/1/.cp/icons/full/obj16/Class.gif187969763)"/><text text-anchor="middle" x="522" y="473" style="font-family:Arial;font-size:13.00;">ChemicalElement</text><text text-anchor="middle" x="514" y="488" style="font-family:Arial;font-size:10.00;">(from mgiml)</text><polygon style="fill:none;stroke:#a30036;" points="450,492 450,457 578,457 578,492 450,492"/></a><a xlink:href="platform%3A%2Fresource%2FRepository%2Fmgiml%2Fmgiml.uml%23_ofCO8NwQEeGylJ60vDoYdA" xlink:title="chemicalSymbol"><text text-anchor="middle" x="511" y="503" style="font-family:Arial;font-size:11.00;">chemicalSymbol : string</text></a><polygon style="fill:none;stroke:#a30036;" points="450,507 450,492 578,492 578,507 450,507"/></g><!-- 250362102&#45;&gt;187969763 --><g id="edge26" class="edge"><title>250362102&#45;&gt;187969763</title><a xlink:href="platform%3A%2Fresource%2FRepository%2Fmgiml%2Fmgiml.uml%23_wiUv8NwQEeGylJ60vDoYdA" xlink:title="elements\n1..*"><path style="fill:none;stroke:#a30036;" d="M478,407C480,409 482,412 484,415 490,425 496,437 500,447"/><polygon style="fill:#a30036;stroke:#a30036;" points="477,406 477,399 470,397 471,404 477,406"/><polygon style="fill:#a30036;stroke:#a30036;" points="504,457 504,446 503,454 500,448 503,454 496,449 504,457 504,457"/><text text-anchor="middle" x="514" y="424" style="font-family:Arial;font-size:10.00;">elements</text><text text-anchor="middle" x="514" y="436" style="font-family:Arial;font-size:10.00;">1..*</text></a></g><!-- 563138022 --><g id="node14" class="node"><title>563138022</title><polygon style="fill:#ffffcc;stroke:#ffffcc;" points="325,617 325,567 421,567 421,617 325,617"/><a xlink:href="platform%3A%2Fresource%2FRepository%2Fmgiml%2Fmgiml.uml%23_XeuvoNwQEeGylJ60vDoYdA" xlink:title="CatalogTitle"><clipPath id="mypathfile:/C:/Program%20Files/Eclipse_indigo/configuration/org.eclipse.osgi/bundles/953/1/.cp/icons/full/obj16/Class.gif563138022"><polygon points="342,570 326,570 326,587 342,587 342,570 "/></clipPath><image xlink:href="file:/C:/Program%20Files/Eclipse_indigo/configuration/org.eclipse.osgi/bundles/953/1/.cp/icons/full/obj16/Class.gif" width="16px" height="17px" preserveAspectRatio="xMidYMid meet" x="326" y="570" clip-path="url(#mypathfile:/C:/Program%20Files/Eclipse_indigo/configuration/org.eclipse.osgi/bundles/953/1/.cp/icons/full/obj16/Class.gif563138022)"/><text text-anchor="middle" x="381" y="583" style="font-family:Arial;font-size:13.00;">CatalogTitle</text><text text-anchor="middle" x="373" y="598" style="font-family:Arial;font-size:10.00;">(from mgiml)</text><polygon style="fill:none;stroke:#a30036;" points="325,602 325,567 421,567 421,602 325,602"/></a><a xlink:href="platform%3A%2Fresource%2FRepository%2Fmgiml%2Fmgiml.uml%23_YRIc8NwQEeGylJ60vDoYdA" xlink:title="name"><text text-anchor="middle" x="360" y="613" style="font-family:Arial;font-size:11.00;">name : string</text></a><polygon style="fill:none;stroke:#a30036;" points="325,617 325,602 421,602 421,617 325,617"/></g><!-- 99426974&#45;&gt;563138022 --><g id="edge28" class="edge"><title>99426974&#45;&gt;563138022</title><a xlink:href="platform%3A%2Fresource%2FRepository%2Fmgiml%2Fmgiml.uml%23_bF5qoNwQEeGylJ60vDoYdA" xlink:title="catalogTitle\n1..1"><path style="fill:none;stroke:#a30036;" d="M373,519C373,531 373,545 373,557"/><polygon style="fill:#a30036;stroke:#a30036;" points="373,519 377,513 373,507 369,513 373,519"/><polygon style="fill:#a30036;stroke:#a30036;" points="373,567 378,557 373,564 373,557 373,564 369,557 373,567 373,567"/><text text-anchor="middle" x="399" y="534" style="font-family:Arial;font-size:10.00;">catalogTitle</text><text text-anchor="middle" x="399" y="546" style="font-family:Arial;font-size:10.00;">1..1</text></a></g></g></svg>