<?xml version="1.0" encoding="UTF-8" standalone="no"?><!DOCTYPE svg PUBLIC "-//W3C//DTD SVG 1.0//EN" "http://www.w3.org/TR/2001/REC-SVG-20010904/DTD/svg10.dtd" [ <!ATTLIST svg xmlns:xlink CDATA #FIXED "http://www.w3.org/1999/xlink">]><!-- Generated by dot version 2.7.20051103.0540 (Thu Nov  3 05:48:38 UTC 2005)     For user: Bill Gates --><!-- Title: uml Pages: 1 --><svg width="325pt" height="292pt" viewBox = "0 0 325 292" xmlns="http://www.w3.org/2000/svg" xmlns:xlink="http://www.w3.org/1999/xlink"><g id="graph0" class="graph" style="font-family:Times-Roman;font-size:14.00;"><title>uml</title><polygon style="fill:white;stroke:white;" points="-1,293 -1,-1 326,-1 326,293 -1,293"/><!-- 1917491973 --><g id="node1" class="node"><title>1917491973</title><polygon style="fill:#ffffcc;stroke:#ffffcc;" points="99,55 99,5 175,5 175,55 99,55"/><a xlink:href="platform%3A%2Fresource%2FRepository%2Fmgiml%2Fmgiml.uml%23_Ra32Idc2EeGqj6dbAaQw_w" xlink:title="Quantity"><clipPath id="mypathfile:/C:/Program%20Files/Eclipse_indigo/configuration/org.eclipse.osgi/bundles/953/1/.cp/icons/full/obj16/Class.gif1917491973"><polygon points="116,8 100,8 100,25 116,25 116,8 "/></clipPath><image xlink:href="file:/C:/Program%20Files/Eclipse_indigo/configuration/org.eclipse.osgi/bundles/953/1/.cp/icons/full/obj16/Class.gif" width="16px" height="17px" preserveAspectRatio="xMidYMid meet" x="100" y="8" clip-path="url(#mypathfile:/C:/Program%20Files/Eclipse_indigo/configuration/org.eclipse.osgi/bundles/953/1/.cp/icons/full/obj16/Class.gif1917491973)"/><text text-anchor="middle" x="146" y="21" style="font-family:Arial;font-size:13.00;">Quantity</text><text text-anchor="middle" x="137" y="36" style="font-family:Arial;font-size:10.00;">(from mgiml)</text><polygon style="fill:none;stroke:#a30036;" points="99,40 99,5 175,5 175,40 99,40"/></a><a xlink:href="platform%3A%2Fresource%2FRepository%2Fmgiml%2Fmgiml.uml%23_Ra32Itc2EeGqj6dbAaQw_w" xlink:title="value"><text text-anchor="middle" x="136" y="51" style="font-family:Arial;font-size:11.00;">value : double</text></a><polygon style="fill:none;stroke:#a30036;" points="99,55 99,40 175,40 175,55 99,55"/></g><!-- 569564558 --><g id="node2" class="node"><title>569564558</title><polygon style="fill:#ffffcc;stroke:#ffffcc;" points="5,177 5,115 157,115 157,177 5,177"/><a xlink:href="platform%3A%2Fresource%2FRepository%2Fmgiml%2Fmgiml.uml%23_L1I1MNsyEeG4nL&#45;0zQ4x_w" xlink:title="Uncertainty"><clipPath id="mypathfile:/C:/Program%20Files/Eclipse_indigo/configuration/org.eclipse.osgi/bundles/953/1/.cp/icons/full/obj16/Class.gif569564558"><polygon points="22,118 6,118 6,135 22,135 22,118 "/></clipPath><image xlink:href="file:/C:/Program%20Files/Eclipse_indigo/configuration/org.eclipse.osgi/bundles/953/1/.cp/icons/full/obj16/Class.gif" width="16px" height="17px" preserveAspectRatio="xMidYMid meet" x="6" y="118" clip-path="url(#mypathfile:/C:/Program%20Files/Eclipse_indigo/configuration/org.eclipse.osgi/bundles/953/1/.cp/icons/full/obj16/Class.gif569564558)"/><text text-anchor="middle" x="89" y="131" style="font-family:Arial;font-size:13.00;">Uncertainty</text><text text-anchor="middle" x="81" y="146" style="font-family:Arial;font-size:10.00;">(from mgiml)</text><polygon style="fill:none;stroke:#a30036;" points="5,150 5,115 157,115 157,150 5,150"/></a><a xlink:href="platform%3A%2Fresource%2FRepository%2Fmgiml%2Fmgiml.uml%23_iNdiENsyEeG4nL&#45;0zQ4x_w" xlink:title="type"><text text-anchor="middle" x="81" y="161" style="font-family:Arial;font-size:11.00;">type : string = amount|fraction</text></a><a xlink:href="platform%3A%2Fresource%2FRepository%2Fmgiml%2Fmgiml.uml%23_q&#45;IGcNsyEeG4nL&#45;0zQ4x_w" xlink:title="value"><text text-anchor="middle" x="42" y="173" style="font-family:Arial;font-size:11.00;">value : double</text></a><polygon style="fill:none;stroke:#a30036;" points="5,177 5,150 157,150 157,177 5,177"/></g><!-- 1917491973&#45;&gt;569564558 --><g id="edge2" class="edge"><title>1917491973&#45;&gt;569564558</title><a xlink:href="platform%3A%2Fresource%2FRepository%2Fmgiml%2Fmgiml.uml%23_wlYC0NsyEeG4nL&#45;0zQ4x_w" xlink:title="uncertainty\n0..1"><path style="fill:none;stroke:#a30036;" d="M120,66C114,79 106,93 100,106"/><polygon style="fill:#a30036;stroke:#a30036;" points="120,66 126,62 125,55 119,59 120,66"/><polygon style="fill:#a30036;stroke:#a30036;" points="96,115 104,108 97,112 100,106 97,112 96,104 96,115 96,115"/><text text-anchor="middle" x="139" y="82" style="font-family:Arial;font-size:10.00;">uncertainty</text><text text-anchor="middle" x="139" y="94" style="font-family:Arial;font-size:10.00;">0..1</text></a></g><!-- 363649887 --><g id="node3" class="node"><title>363649887</title><polygon style="fill:#ffffcc;stroke:#ffffcc;" points="175,171 175,121 289,121 289,171 175,171"/><a xlink:href="platform%3A%2Fresource%2FRepository%2Fmgiml%2Fmgiml.uml%23_fad_gNwCEeGylJ60vDoYdA" xlink:title="UnitOfMeasure"><clipPath id="mypathfile:/C:/Program%20Files/Eclipse_indigo/configuration/org.eclipse.osgi/bundles/953/1/.cp/icons/full/obj16/Class.gif363649887"><polygon points="192,124 176,124 176,141 192,141 192,124 "/></clipPath><image xlink:href="file:/C:/Program%20Files/Eclipse_indigo/configuration/org.eclipse.osgi/bundles/953/1/.cp/icons/full/obj16/Class.gif" width="16px" height="17px" preserveAspectRatio="xMidYMid meet" x="176" y="124" clip-path="url(#mypathfile:/C:/Program%20Files/Eclipse_indigo/configuration/org.eclipse.osgi/bundles/953/1/.cp/icons/full/obj16/Class.gif363649887)"/><text text-anchor="middle" x="240" y="137" style="font-family:Arial;font-size:13.00;">UnitOfMeasure</text><text text-anchor="middle" x="232" y="152" style="font-family:Arial;font-size:10.00;">(from mgiml)</text><polygon style="fill:none;stroke:#a30036;" points="175,156 175,121 289,121 289,156 175,156"/></a><a xlink:href="platform%3A%2Fresource%2FRepository%2Fmgiml%2Fmgiml.uml%23_gxbycNwCEeGylJ60vDoYdA" xlink:title="name"><text text-anchor="middle" x="210" y="167" style="font-family:Arial;font-size:11.00;">name : string</text></a><polygon style="fill:none;stroke:#a30036;" points="175,171 175,156 289,156 289,171 175,171"/></g><!-- 1917491973&#45;&gt;363649887 --><g id="edge4" class="edge"><title>1917491973&#45;&gt;363649887</title><a xlink:href="platform%3A%2Fresource%2FRepository%2Fmgiml%2Fmgiml.uml%23_tDTzwNwCEeGylJ60vDoYdA" xlink:title="unit\n1..1"><path style="fill:none;stroke:#a30036;" d="M166,64C179,79 193,97 206,113"/><polygon style="fill:#a30036;stroke:#a30036;" points="166,64 165,57 158,55 159,62 166,64"/><polygon style="fill:#a30036;stroke:#a30036;" points="212,121 210,110 210,119 206,113 210,119 202,116 212,121 212,121"/><text text-anchor="middle" x="197" y="82" style="font-family:Arial;font-size:10.00;">unit</text><text text-anchor="middle" x="197" y="94" style="font-family:Arial;font-size:10.00;">1..1</text></a></g><!-- 795333985 --><g id="node4" class="node"><title>795333985</title><polygon style="fill:#ffffcc;stroke:#ffffcc;" points="161,287 161,237 303,237 303,287 161,287"/><a xlink:href="platform%3A%2Fresource%2FRepository%2Fmgiml%2Fmgiml.uml%23_P0SJQNwMEeGylJ60vDoYdA" xlink:title="UnitOfMeasureType"><clipPath id="mypathfile:/C:/Program%20Files/Eclipse_indigo/configuration/org.eclipse.osgi/bundles/953/1/.cp/icons/full/obj16/Class.gif795333985"><polygon points="178,240 162,240 162,257 178,257 178,240 "/></clipPath><image xlink:href="file:/C:/Program%20Files/Eclipse_indigo/configuration/org.eclipse.osgi/bundles/953/1/.cp/icons/full/obj16/Class.gif" width="16px" height="17px" preserveAspectRatio="xMidYMid meet" x="162" y="240" clip-path="url(#mypathfile:/C:/Program%20Files/Eclipse_indigo/configuration/org.eclipse.osgi/bundles/953/1/.cp/icons/full/obj16/Class.gif795333985)"/><text text-anchor="middle" x="240" y="253" style="font-family:Arial;font-size:13.00;">UnitOfMeasureType</text><text text-anchor="middle" x="232" y="268" style="font-family:Arial;font-size:10.00;">(from mgiml)</text><polygon style="fill:none;stroke:#a30036;" points="161,272 161,237 303,237 303,272 161,272"/></a><a xlink:href="platform%3A%2Fresource%2FRepository%2Fmgiml%2Fmgiml.uml%23_fhsdUNwMEeGylJ60vDoYdA" xlink:title="name"><text text-anchor="middle" x="196" y="283" style="font-family:Arial;font-size:11.00;">name : string</text></a><polygon style="fill:none;stroke:#a30036;" points="161,287 161,272 303,272 303,287 161,287"/></g><!-- 363649887&#45;&gt;795333985 --><g id="edge6" class="edge"><title>363649887&#45;&gt;795333985</title><a xlink:href="platform%3A%2Fresource%2FRepository%2Fmgiml%2Fmgiml.uml%23_U9Cy0NwMEeGylJ60vDoYdA" xlink:title="unitOfMeasureType\n1..1"><path style="fill:none;stroke:#a30036;" d="M232,183C232,197 232,213 232,227"/><polygon style="fill:#a30036;stroke:#a30036;" points="232,183 236,177 232,171 228,177 232,183"/><polygon style="fill:#a30036;stroke:#a30036;" points="232,237 237,227 232,234 232,227 232,234 228,227 232,237 232,237"/><text text-anchor="middle" x="276" y="204" style="font-family:Arial;font-size:10.00;">unitOfMeasureType</text><text text-anchor="middle" x="276" y="216" style="font-family:Arial;font-size:10.00;">1..1</text></a></g></g></svg>