<?xml version="1.0" encoding="UTF-8" standalone="no"?><!DOCTYPE svg PUBLIC "-//W3C//DTD SVG 1.0//EN" "http://www.w3.org/TR/2001/REC-SVG-20010904/DTD/svg10.dtd" [ <!ATTLIST svg xmlns:xlink CDATA #FIXED "http://www.w3.org/1999/xlink">]><!-- Generated by dot version 2.7.20051103.0540 (Thu Nov  3 05:48:38 UTC 2005)     For user: Bill Gates --><!-- Title: uml Pages: 1 --><svg width="824pt" height="882pt" viewBox = "0 0 824 882" xmlns="http://www.w3.org/2000/svg" xmlns:xlink="http://www.w3.org/1999/xlink"><g id="graph0" class="graph" style="font-family:Times-Roman;font-size:14.00;"><title>uml</title><polygon style="fill:white;stroke:white;" points="-1,883 -1,-1 825,-1 825,883 -1,883"/><!-- 2050432105 --><g id="node1" class="node"><title>2050432105</title><polygon style="fill:#ffffcc;stroke:#ffffcc;" points="484,55 484,5 542,5 542,55 484,55"/><a xlink:href="platform%3A%2Fresource%2FRepository%2Fmgiml%2Fmgiml.uml%23_R50tUOL6EeG2hPSuOHxJCg" xlink:title="File"><clipPath id="mypathfile:/C:/Program%20Files/Eclipse_indigo/configuration/org.eclipse.osgi/bundles/953/1/.cp/icons/full/obj16/Class.gif2050432105"><polygon points="501,8 485,8 485,25 501,25 501,8 "/></clipPath><image xlink:href="file:/C:/Program%20Files/Eclipse_indigo/configuration/org.eclipse.osgi/bundles/953/1/.cp/icons/full/obj16/Class.gif" width="16px" height="17px" preserveAspectRatio="xMidYMid meet" x="485" y="8" clip-path="url(#mypathfile:/C:/Program%20Files/Eclipse_indigo/configuration/org.eclipse.osgi/bundles/953/1/.cp/icons/full/obj16/Class.gif2050432105)"/><text text-anchor="middle" x="521" y="21" style="font-family:Arial;font-size:13.00;">File</text><text text-anchor="middle" x="513" y="36" style="font-family:Arial;font-size:10.00;">(from table)</text><polygon style="fill:none;stroke:#a30036;" points="484,40 484,5 542,5 542,40 484,40"/></a><a xlink:href="platform%3A%2Fresource%2FRepository%2Fmgiml%2Fmgiml.uml%23_ZbDDEOL6EeG2hPSuOHxJCg" xlink:title="title"><text text-anchor="middle" x="513" y="51" style="font-family:Arial;font-size:11.00;">title : string</text></a><polygon style="fill:none;stroke:#a30036;" points="484,55 484,40 542,40 542,55 484,55"/></g><!-- 176241594 --><g id="node2" class="node"><title>176241594</title><polygon style="fill:#ffffcc;stroke:#ffffcc;" points="484,165 484,115 542,115 542,165 484,165"/><a xlink:href="platform%3A%2Fresource%2FRepository%2Fmgiml%2Fmgiml.uml%23_piRd8OL9EeG2hPSuOHxJCg" xlink:title="Table"><clipPath id="mypathfile:/C:/Program%20Files/Eclipse_indigo/configuration/org.eclipse.osgi/bundles/953/1/.cp/icons/full/obj16/Class.gif176241594"><polygon points="501,118 485,118 485,135 501,135 501,118 "/></clipPath><image xlink:href="file:/C:/Program%20Files/Eclipse_indigo/configuration/org.eclipse.osgi/bundles/953/1/.cp/icons/full/obj16/Class.gif" width="16px" height="17px" preserveAspectRatio="xMidYMid meet" x="485" y="118" clip-path="url(#mypathfile:/C:/Program%20Files/Eclipse_indigo/configuration/org.eclipse.osgi/bundles/953/1/.cp/icons/full/obj16/Class.gif176241594)"/><text text-anchor="middle" x="521" y="131" style="font-family:Arial;font-size:13.00;">Table</text><text text-anchor="middle" x="513" y="146" style="font-family:Arial;font-size:10.00;">(from table)</text><polygon style="fill:none;stroke:#a30036;" points="484,150 484,115 542,115 542,150 484,150"/></a><a xlink:href="platform%3A%2Fresource%2FRepository%2Fmgiml%2Fmgiml.uml%23_stUe0OMXEeGjAMHAMC1TsA" xlink:title="title"><text text-anchor="middle" x="513" y="161" style="font-family:Arial;font-size:11.00;">title : string</text></a><polygon style="fill:none;stroke:#a30036;" points="484,165 484,150 542,150 542,165 484,165"/></g><!-- 2050432105&#45;&gt;176241594 --><g id="edge16" class="edge"><title>2050432105&#45;&gt;176241594</title><a xlink:href="platform%3A%2Fresource%2FRepository%2Fmgiml%2Fmgiml.uml%23_q_1BEOL9EeG2hPSuOHxJCg" xlink:title="tables\n1..*"><path style="fill:none;stroke:#a30036;" d="M513,67C513,79 513,93 513,105"/><polygon style="fill:#a30036;stroke:#a30036;" points="513,67 517,61 513,55 509,61 513,67"/><polygon style="fill:#a30036;stroke:#a30036;" points="513,115 518,105 513,112 513,105 513,112 509,105 513,115 513,115"/><text text-anchor="middle" x="527" y="82" style="font-family:Arial;font-size:10.00;">tables</text><text text-anchor="middle" x="527" y="94" style="font-family:Arial;font-size:10.00;">1..*</text></a></g><!-- 333646108 --><g id="node3" class="node"><title>333646108</title><polygon style="fill:#ffffcc;stroke:#ffffcc;" points="450,275 450,225 576,225 576,275 450,275"/><a xlink:href="platform%3A%2Fresource%2FRepository%2Fmgiml%2Fmgiml.uml%23_vWxOEOYcEeGUB4q_V543&#45;w" xlink:title="SubsequentTable"><clipPath id="mypathfile:/C:/Program%20Files/Eclipse_indigo/configuration/org.eclipse.osgi/bundles/953/1/.cp/icons/full/obj16/Class.gif333646108"><polygon points="467,228 451,228 451,245 467,245 467,228 "/></clipPath><image xlink:href="file:/C:/Program%20Files/Eclipse_indigo/configuration/org.eclipse.osgi/bundles/953/1/.cp/icons/full/obj16/Class.gif" width="16px" height="17px" preserveAspectRatio="xMidYMid meet" x="451" y="228" clip-path="url(#mypathfile:/C:/Program%20Files/Eclipse_indigo/configuration/org.eclipse.osgi/bundles/953/1/.cp/icons/full/obj16/Class.gif333646108)"/><text text-anchor="middle" x="521" y="241" style="font-family:Arial;font-size:13.00;">SubsequentTable</text><text text-anchor="middle" x="513" y="256" style="font-family:Arial;font-size:10.00;">(from table)</text><polygon style="fill:none;stroke:#a30036;" points="450,260 450,225 576,225 576,260 450,260"/></a><text text-anchor="middle" x="513" y="271" style="font-family:Arial;font-size:11.00;"> </text><polygon style="fill:none;stroke:#a30036;" points="450,275 450,260 576,260 576,275 450,275"/></g><!-- 176241594&#45;&gt;333646108 --><g id="edge18" class="edge"><title>176241594&#45;&gt;333646108</title><a xlink:href="platform%3A%2Fresource%2FRepository%2Fmgiml%2Fmgiml.uml%23_7MJgoOYcEeGUB4q_V543&#45;w" xlink:title="subsequentTable\n1..*"><path style="fill:none;stroke:#a30036;" d="M513,177C513,189 513,203 513,215"/><polygon style="fill:#a30036;stroke:#a30036;" points="513,177 517,171 513,165 509,171 513,177"/><polygon style="fill:#a30036;stroke:#a30036;" points="513,225 518,215 513,222 513,215 513,222 509,215 513,225 513,225"/><text text-anchor="middle" x="551" y="192" style="font-family:Arial;font-size:10.00;">subsequentTable</text><text text-anchor="middle" x="551" y="204" style="font-family:Arial;font-size:10.00;">1..*</text></a></g><!-- 892273500 --><g id="node4" class="node"><title>892273500</title><polygon style="fill:#ffffcc;stroke:#ffffcc;" points="408,385 408,335 484,335 484,385 408,385"/><a xlink:href="platform%3A%2Fresource%2FRepository%2Fmgiml%2Fmgiml.uml%23_R7SLEOVZEeGdWtr&#45;mkIx7g" xlink:title="Headers"><clipPath id="mypathfile:/C:/Program%20Files/Eclipse_indigo/configuration/org.eclipse.osgi/bundles/953/1/.cp/icons/full/obj16/Class.gif892273500"><polygon points="425,338 409,338 409,355 425,355 425,338 "/></clipPath><image xlink:href="file:/C:/Program%20Files/Eclipse_indigo/configuration/org.eclipse.osgi/bundles/953/1/.cp/icons/full/obj16/Class.gif" width="16px" height="17px" preserveAspectRatio="xMidYMid meet" x="409" y="338" clip-path="url(#mypathfile:/C:/Program%20Files/Eclipse_indigo/configuration/org.eclipse.osgi/bundles/953/1/.cp/icons/full/obj16/Class.gif892273500)"/><text text-anchor="middle" x="454" y="351" style="font-family:Arial;font-size:13.00;">Headers</text><text text-anchor="middle" x="446" y="366" style="font-family:Arial;font-size:10.00;">(from table)</text><polygon style="fill:none;stroke:#a30036;" points="408,370 408,335 484,335 484,370 408,370"/></a><text text-anchor="middle" x="446" y="381" style="font-family:Arial;font-size:11.00;"> </text><polygon style="fill:none;stroke:#a30036;" points="408,385 408,370 484,370 484,385 408,385"/></g><!-- 333646108&#45;&gt;892273500 --><g id="edge20" class="edge"><title>333646108&#45;&gt;892273500</title><a xlink:href="platform%3A%2Fresource%2FRepository%2Fmgiml%2Fmgiml.uml%23_ALS7MOYdEeGUB4q_V543&#45;w" xlink:title="headers\n1..1"><path style="fill:none;stroke:#a30036;" d="M491,286C484,299 474,313 466,326"/><polygon style="fill:#a30036;stroke:#a30036;" points="492,285 498,282 498,275 491,278 492,285"/><polygon style="fill:#a30036;stroke:#a30036;" points="461,335 470,328 462,332 466,326 462,332 462,324 461,335 461,335"/><text text-anchor="middle" x="504" y="302" style="font-family:Arial;font-size:10.00;">headers</text><text text-anchor="middle" x="504" y="314" style="font-family:Arial;font-size:10.00;">1..1</text></a></g><!-- 597511408 --><g id="node5" class="node"><title>597511408</title><polygon style="fill:#ffffcc;stroke:#ffffcc;" points="537,385 537,335 595,335 595,385 537,385"/><a xlink:href="platform%3A%2Fresource%2FRepository%2Fmgiml%2Fmgiml.uml%23_W90HsOJiEeG3p4NxXjMbqA" xlink:title="Row"><clipPath id="mypathfile:/C:/Program%20Files/Eclipse_indigo/configuration/org.eclipse.osgi/bundles/953/1/.cp/icons/full/obj16/Class.gif597511408"><polygon points="554,338 538,338 538,355 554,355 554,338 "/></clipPath><image xlink:href="file:/C:/Program%20Files/Eclipse_indigo/configuration/org.eclipse.osgi/bundles/953/1/.cp/icons/full/obj16/Class.gif" width="16px" height="17px" preserveAspectRatio="xMidYMid meet" x="538" y="338" clip-path="url(#mypathfile:/C:/Program%20Files/Eclipse_indigo/configuration/org.eclipse.osgi/bundles/953/1/.cp/icons/full/obj16/Class.gif597511408)"/><text text-anchor="middle" x="575" y="351" style="font-family:Arial;font-size:13.00;">Row</text><text text-anchor="middle" x="566" y="366" style="font-family:Arial;font-size:10.00;">(from table)</text><polygon style="fill:none;stroke:#a30036;" points="537,370 537,335 595,335 595,370 537,370"/></a><text text-anchor="middle" x="566" y="381" style="font-family:Arial;font-size:11.00;"> </text><polygon style="fill:none;stroke:#a30036;" points="537,385 537,370 595,370 595,385 537,385"/></g><!-- 333646108&#45;&gt;597511408 --><g id="edge22" class="edge"><title>333646108&#45;&gt;597511408</title><a xlink:href="platform%3A%2Fresource%2FRepository%2Fmgiml%2Fmgiml.uml%23_DInA4OYdEeGUB4q_V543&#45;w" xlink:title="rows\n1..*"><path style="fill:none;stroke:#a30036;" d="M530,286C536,299 543,313 550,326"/><polygon style="fill:#a30036;stroke:#a30036;" points="530,286 531,279 525,275 524,282 530,286"/><polygon style="fill:#a30036;stroke:#a30036;" points="554,335 554,324 553,332 550,326 553,332 546,328 554,335 554,335"/><text text-anchor="middle" x="553" y="302" style="font-family:Arial;font-size:10.00;">rows</text><text text-anchor="middle" x="553" y="314" style="font-family:Arial;font-size:10.00;">1..*</text></a></g><!-- 1755590660 --><g id="node6" class="node"><title>1755590660</title><polygon style="fill:#ffffcc;stroke:#ffffcc;" points="321,495 321,445 391,445 391,495 321,495"/><a xlink:href="platform%3A%2Fresource%2FRepository%2Fmgiml%2Fmgiml.uml%23_Z3lxMOJiEeG3p4NxXjMbqA" xlink:title="Header"><clipPath id="mypathfile:/C:/Program%20Files/Eclipse_indigo/configuration/org.eclipse.osgi/bundles/953/1/.cp/icons/full/obj16/Class.gif1755590660"><polygon points="338,448 322,448 322,465 338,465 338,448 "/></clipPath><image xlink:href="file:/C:/Program%20Files/Eclipse_indigo/configuration/org.eclipse.osgi/bundles/953/1/.cp/icons/full/obj16/Class.gif" width="16px" height="17px" preserveAspectRatio="xMidYMid meet" x="322" y="448" clip-path="url(#mypathfile:/C:/Program%20Files/Eclipse_indigo/configuration/org.eclipse.osgi/bundles/953/1/.cp/icons/full/obj16/Class.gif1755590660)"/><text text-anchor="middle" x="365" y="461" style="font-family:Arial;font-size:13.00;">Header</text><text text-anchor="middle" x="356" y="476" style="font-family:Arial;font-size:10.00;">(from table)</text><polygon style="fill:none;stroke:#a30036;" points="321,480 321,445 391,445 391,480 321,480"/></a><a xlink:href="platform%3A%2Fresource%2FRepository%2Fmgiml%2Fmgiml.uml%23_PwTm0OMgEeGjAMHAMC1TsA" xlink:title="name"><text text-anchor="middle" x="356" y="491" style="font-family:Arial;font-size:11.00;">name : string</text></a><polygon style="fill:none;stroke:#a30036;" points="321,495 321,480 391,480 391,495 321,495"/></g><!-- 892273500&#45;&gt;1755590660 --><g id="edge24" class="edge"><title>892273500&#45;&gt;1755590660</title><a xlink:href="platform%3A%2Fresource%2FRepository%2Fmgiml%2Fmgiml.uml%23_XYVCkOVZEeGdWtr&#45;mkIx7g" xlink:title="header\n1..*"><path style="fill:none;stroke:#a30036;" d="M417,395C406,408 394,424 383,437"/><polygon style="fill:#a30036;stroke:#a30036;" points="418,394 424,392 425,385 418,387 418,394"/><polygon style="fill:#a30036;stroke:#a30036;" points="377,445 387,440 379,443 383,437 379,443 379,434 377,445 377,445"/><text text-anchor="middle" x="429" y="412" style="font-family:Arial;font-size:10.00;">header</text><text text-anchor="middle" x="429" y="424" style="font-family:Arial;font-size:10.00;">1..*</text></a></g><!-- 1731468446 --><g id="node7" class="node"><title>1731468446</title><polygon style="fill:#ffffcc;stroke:#ffffcc;" points="680,767 680,691 786,691 786,767 680,767"/><a xlink:href="platform%3A%2Fresource%2FRepository%2Fmgiml%2Fmgiml.uml%23_qpkHEOV3EeGdWtr&#45;mkIx7g" xlink:title="Coordinates"><clipPath id="mypathfile:/C:/Program%20Files/Eclipse_indigo/configuration/org.eclipse.osgi/bundles/953/1/.cp/icons/full/obj16/Class.gif1731468446"><polygon points="697,695 681,695 681,711 697,711 697,695 "/></clipPath><image xlink:href="file:/C:/Program%20Files/Eclipse_indigo/configuration/org.eclipse.osgi/bundles/953/1/.cp/icons/full/obj16/Class.gif" width="16px" height="16px" preserveAspectRatio="xMidYMid meet" x="681" y="695" clip-path="url(#mypathfile:/C:/Program%20Files/Eclipse_indigo/configuration/org.eclipse.osgi/bundles/953/1/.cp/icons/full/obj16/Class.gif1731468446)"/><text text-anchor="middle" x="741" y="707" style="font-family:Arial;font-size:13.00;">Coordinates</text><text text-anchor="middle" x="733" y="723" style="font-family:Arial;font-size:10.00;">(from table)</text><text text-anchor="middle" x="758" y="736" style="font-family:Arial;font-size:11.00;"> {abstract}</text><polygon style="fill:none;stroke:#a30036;" points="680,740 680,691 786,691 786,740 680,740"/></a><a xlink:href="platform%3A%2Fresource%2FRepository%2Fmgiml%2Fmgiml.uml%23_wkkF4OV3EeGdWtr&#45;mkIx7g" xlink:title="rowNumber"><text text-anchor="middle" x="724" y="751" style="font-family:Arial;font-size:11.00;">rowNumber [1..*]</text></a><a xlink:href="platform%3A%2Fresource%2FRepository%2Fmgiml%2Fmgiml.uml%23_8XaB0OV3EeGdWtr&#45;mkIx7g" xlink:title="columnNumber"><text text-anchor="middle" x="733" y="763" style="font-family:Arial;font-size:11.00;">columnNumber [1..*]</text></a><polygon style="fill:none;stroke:#a30036;" points="680,767 680,740 786,740 786,767 680,767"/></g><!-- 597511408&#45;&gt;1731468446 --><g id="edge26" class="edge"><title>597511408&#45;&gt;1731468446</title><a xlink:href="platform%3A%2Fresource%2FRepository%2Fmgiml%2Fmgiml.uml%23_Iu3twOV4EeGdWtr&#45;mkIx7g" xlink:title="coordinates\n1..*"><path style="fill:none;stroke:#a30036;" d="M605,389C648,423 715,484 747,555 768,603 761,622 753,673 753,676 752,679 751,681"/><polygon style="fill:none;stroke:#a30036;" points="604,388 602,382 595,381 597,388 604,388"/><polygon style="fill:#a30036;stroke:#a30036;" points="748,691 755,683 749,688 751,681 749,688 747,680 748,691 748,691"/><text text-anchor="middle" x="761" y="522" style="font-family:Arial;font-size:10.00;">coordinates</text><text text-anchor="middle" x="761" y="534" style="font-family:Arial;font-size:10.00;">1..*</text></a></g><!-- 888418442 --><g id="node8" class="node"><title>888418442</title><polygon style="fill:#ffffcc;stroke:#ffffcc;" points="523,495 523,445 609,445 609,495 523,495"/><a xlink:href="platform%3A%2Fresource%2FRepository%2Fmgiml%2Fmgiml.uml%23_WScogOVtEeGdWtr&#45;mkIx7g" xlink:title="BlankRow"><clipPath id="mypathfile:/C:/Program%20Files/Eclipse_indigo/configuration/org.eclipse.osgi/bundles/953/1/.cp/icons/full/obj16/Class.gif888418442"><polygon points="540,448 524,448 524,465 540,465 540,448 "/></clipPath><image xlink:href="file:/C:/Program%20Files/Eclipse_indigo/configuration/org.eclipse.osgi/bundles/953/1/.cp/icons/full/obj16/Class.gif" width="16px" height="17px" preserveAspectRatio="xMidYMid meet" x="524" y="448" clip-path="url(#mypathfile:/C:/Program%20Files/Eclipse_indigo/configuration/org.eclipse.osgi/bundles/953/1/.cp/icons/full/obj16/Class.gif888418442)"/><text text-anchor="middle" x="575" y="461" style="font-family:Arial;font-size:13.00;">BlankRow</text><text text-anchor="middle" x="566" y="476" style="font-family:Arial;font-size:10.00;">(from table)</text><polygon style="fill:none;stroke:#a30036;" points="523,480 523,445 609,445 609,480 523,480"/></a><text text-anchor="middle" x="566" y="491" style="font-family:Arial;font-size:11.00;"> </text><polygon style="fill:none;stroke:#a30036;" points="523,495 523,480 609,480 609,495 523,495"/></g><!-- 597511408&#45;&gt;888418442 --><g id="edge2" class="edge"><title>597511408&#45;&gt;888418442</title><path style="fill:none;stroke:#000080;" d="M566,400C566,415 566,432 566,445"/><polygon style="fill:none;stroke:#000080;" points="561,400 566,385 571,400 561,400"/></g><!-- 225412622 --><g id="node9" class="node"><title>225412622</title><polygon style="fill:#ffffcc;stroke:#ffffcc;" points="666,605 666,555 738,555 738,605 666,605"/><a xlink:href="platform%3A%2Fresource%2FRepository%2Fmgiml%2Fmgiml.uml%23_Yxx_sOJiEeG3p4NxXjMbqA" xlink:title="Column"><clipPath id="mypathfile:/C:/Program%20Files/Eclipse_indigo/configuration/org.eclipse.osgi/bundles/953/1/.cp/icons/full/obj16/Class.gif225412622"><polygon points="683,558 667,558 667,575 683,575 683,558 "/></clipPath><image xlink:href="file:/C:/Program%20Files/Eclipse_indigo/configuration/org.eclipse.osgi/bundles/953/1/.cp/icons/full/obj16/Class.gif" width="16px" height="17px" preserveAspectRatio="xMidYMid meet" x="667" y="558" clip-path="url(#mypathfile:/C:/Program%20Files/Eclipse_indigo/configuration/org.eclipse.osgi/bundles/953/1/.cp/icons/full/obj16/Class.gif225412622)"/><text text-anchor="middle" x="711" y="571" style="font-family:Arial;font-size:13.00;">Column</text><text text-anchor="middle" x="702" y="586" style="font-family:Arial;font-size:10.00;">(from table)</text><polygon style="fill:none;stroke:#a30036;" points="666,590 666,555 738,555 738,590 666,590"/></a><text text-anchor="middle" x="702" y="601" style="font-family:Arial;font-size:11.00;"> </text><polygon style="fill:none;stroke:#a30036;" points="666,605 666,590 738,590 738,605 666,605"/></g><!-- 1755590660&#45;&gt;225412622 --><g id="edge28" class="edge"><title>1755590660&#45;&gt;225412622</title><a xlink:href="platform%3A%2Fresource%2FRepository%2Fmgiml%2Fmgiml.uml%23_wNJmQOMYEeGjAMHAMC1TsA" xlink:title="columns\n1..*"><path style="fill:none;stroke:#a30036;" d="M403,480C461,494 563,517 657,555"/><polygon style="fill:#a30036;stroke:#a30036;" points="403,480 398,475 391,477 396,482 403,480"/><polygon style="fill:#a30036;stroke:#a30036;" points="666,559 659,551 663,558 657,555 663,558 655,559 666,559 666,559"/><text text-anchor="middle" x="618" y="522" style="font-family:Arial;font-size:10.00;">columns</text><text text-anchor="middle" x="618" y="534" style="font-family:Arial;font-size:10.00;">1..*</text></a></g><!-- 1164188087 --><g id="node10" class="node"><title>1164188087</title><polygon style="fill:#ffffcc;stroke:#ffffcc;" points="34,754 34,704 114,704 114,754 34,754"/><a xlink:href="platform%3A%2Fresource%2FRepository%2Fmgiml%2Fmgiml.uml%23_G9IeoOVdEeGdWtr&#45;mkIx7g" xlink:title="RowKey"><clipPath id="mypathfile:/C:/Program%20Files/Eclipse_indigo/configuration/org.eclipse.osgi/bundles/953/1/.cp/icons/full/obj16/Class.gif1164188087"><polygon points="51,707 35,707 35,724 51,724 51,707 "/></clipPath><image xlink:href="file:/C:/Program%20Files/Eclipse_indigo/configuration/org.eclipse.osgi/bundles/953/1/.cp/icons/full/obj16/Class.gif" width="16px" height="17px" preserveAspectRatio="xMidYMid meet" x="35" y="707" clip-path="url(#mypathfile:/C:/Program%20Files/Eclipse_indigo/configuration/org.eclipse.osgi/bundles/953/1/.cp/icons/full/obj16/Class.gif1164188087)"/><text text-anchor="middle" x="83" y="720" style="font-family:Arial;font-size:13.00;">RowKey</text><text text-anchor="middle" x="74" y="735" style="font-family:Arial;font-size:10.00;">(from table)</text><polygon style="fill:none;stroke:#a30036;" points="34,739 34,704 114,704 114,739 34,739"/></a><a xlink:href="platform%3A%2Fresource%2FRepository%2Fmgiml%2Fmgiml.uml%23_Nj_d4OVdEeGdWtr&#45;mkIx7g" xlink:title="variable"><text text-anchor="middle" x="74" y="750" style="font-family:Arial;font-size:11.00;">variable : string</text></a><polygon style="fill:none;stroke:#a30036;" points="34,754 34,739 114,739 114,754 34,754"/></g><!-- 1755590660&#45;&gt;1164188087 --><g id="edge4" class="edge"><title>1755590660&#45;&gt;1164188087</title><path style="fill:none;stroke:#000080;" d="M306,476C225,487 72,514 39,555 5,599 36,667 58,704"/><polygon style="fill:none;stroke:#000080;" points="305,471 321,474 307,481 305,471"/></g><!-- 1231054393 --><g id="node11" class="node"><title>1231054393</title><polygon style="fill:#ffffcc;stroke:#ffffcc;" points="48,605 48,555 168,555 168,605 48,605"/><a xlink:href="platform%3A%2Fresource%2FRepository%2Fmgiml%2Fmgiml.uml%23_WeTGcOVdEeGdWtr&#45;mkIx7g" xlink:title="RowKeyfunction"><clipPath id="mypathfile:/C:/Program%20Files/Eclipse_indigo/configuration/org.eclipse.osgi/bundles/953/1/.cp/icons/full/obj16/Class.gif1231054393"><polygon points="65,558 49,558 49,575 65,575 65,558 "/></clipPath><image xlink:href="file:/C:/Program%20Files/Eclipse_indigo/configuration/org.eclipse.osgi/bundles/953/1/.cp/icons/full/obj16/Class.gif" width="16px" height="17px" preserveAspectRatio="xMidYMid meet" x="49" y="558" clip-path="url(#mypathfile:/C:/Program%20Files/Eclipse_indigo/configuration/org.eclipse.osgi/bundles/953/1/.cp/icons/full/obj16/Class.gif1231054393)"/><text text-anchor="middle" x="116" y="571" style="font-family:Arial;font-size:13.00;">RowKeyfunction</text><text text-anchor="middle" x="108" y="586" style="font-family:Arial;font-size:10.00;">(from table)</text><polygon style="fill:none;stroke:#a30036;" points="48,590 48,555 168,555 168,590 48,590"/></a><a xlink:href="platform%3A%2Fresource%2FRepository%2Fmgiml%2Fmgiml.uml%23_YVyzkOVdEeGdWtr&#45;mkIx7g" xlink:title="function"><text text-anchor="middle" x="88" y="601" style="font-family:Arial;font-size:11.00;">function : string</text></a><polygon style="fill:none;stroke:#a30036;" points="48,605 48,590 168,590 168,605 48,605"/></g><!-- 1755590660&#45;&gt;1231054393 --><g id="edge6" class="edge"><title>1755590660&#45;&gt;1231054393</title><path style="fill:none;stroke:#000080;" d="M307,492C267,510 208,536 165,555"/><polygon style="fill:none;stroke:#000080;" points="305,487 321,486 309,497 305,487"/></g><!-- 2047508077 --><g id="node12" class="node"><title>2047508077</title><polygon style="fill:#ffffcc;stroke:#ffffcc;" points="186,605 186,555 310,555 310,605 186,605"/><a xlink:href="platform%3A%2Fresource%2FRepository%2Fmgiml%2Fmgiml.uml%23_sgc5kOVeEeGdWtr&#45;mkIx7g" xlink:title="ChemicalHeader"><clipPath id="mypathfile:/C:/Program%20Files/Eclipse_indigo/configuration/org.eclipse.osgi/bundles/953/1/.cp/icons/full/obj16/Class.gif2047508077"><polygon points="203,558 187,558 187,575 203,575 203,558 "/></clipPath><image xlink:href="file:/C:/Program%20Files/Eclipse_indigo/configuration/org.eclipse.osgi/bundles/953/1/.cp/icons/full/obj16/Class.gif" width="16px" height="17px" preserveAspectRatio="xMidYMid meet" x="187" y="558" clip-path="url(#mypathfile:/C:/Program%20Files/Eclipse_indigo/configuration/org.eclipse.osgi/bundles/953/1/.cp/icons/full/obj16/Class.gif2047508077)"/><text text-anchor="middle" x="257" y="571" style="font-family:Arial;font-size:13.00;">ChemicalHeader</text><text text-anchor="middle" x="248" y="586" style="font-family:Arial;font-size:10.00;">(from table)</text><polygon style="fill:none;stroke:#a30036;" points="186,590 186,555 310,555 310,590 186,590"/></a><text text-anchor="middle" x="248" y="601" style="font-family:Arial;font-size:11.00;"> </text><polygon style="fill:none;stroke:#a30036;" points="186,605 186,590 310,590 310,605 186,605"/></g><!-- 1755590660&#45;&gt;2047508077 --><g id="edge8" class="edge"><title>1755590660&#45;&gt;2047508077</title><path style="fill:none;stroke:#000080;" d="M320,506C305,522 287,540 273,555"/><polygon style="fill:none;stroke:#000080;" points="317,502 331,495 324,509 317,502"/></g><!-- 1457122431 --><g id="node13" class="node"><title>1457122431</title><polygon style="fill:#ffffcc;stroke:#ffffcc;" points="279,673 279,623 397,623 397,673 279,673"/><a xlink:href="platform%3A%2Fresource%2FRepository%2Fmgiml%2Fmgiml.uml%23_BDnboOVfEeGdWtr&#45;mkIx7g" xlink:title="PropertyHeader"><clipPath id="mypathfile:/C:/Program%20Files/Eclipse_indigo/configuration/org.eclipse.osgi/bundles/953/1/.cp/icons/full/obj16/Class.gif1457122431"><polygon points="296,626 280,626 280,643 296,643 296,626 "/></clipPath><image xlink:href="file:/C:/Program%20Files/Eclipse_indigo/configuration/org.eclipse.osgi/bundles/953/1/.cp/icons/full/obj16/Class.gif" width="16px" height="17px" preserveAspectRatio="xMidYMid meet" x="280" y="626" clip-path="url(#mypathfile:/C:/Program%20Files/Eclipse_indigo/configuration/org.eclipse.osgi/bundles/953/1/.cp/icons/full/obj16/Class.gif1457122431)"/><text text-anchor="middle" x="346" y="639" style="font-family:Arial;font-size:13.00;">PropertyHeader</text><text text-anchor="middle" x="338" y="654" style="font-family:Arial;font-size:10.00;">(from table)</text><polygon style="fill:none;stroke:#a30036;" points="279,658 279,623 397,623 397,658 279,658"/></a><text text-anchor="middle" x="338" y="669" style="font-family:Arial;font-size:11.00;"> </text><polygon style="fill:none;stroke:#a30036;" points="279,673 279,658 397,658 397,673 279,673"/></g><!-- 1755590660&#45;&gt;1457122431 --><g id="edge10" class="edge"><title>1755590660&#45;&gt;1457122431</title><path style="fill:none;stroke:#000080;" d="M352,510C348,545 343,594 340,623"/><polygon style="fill:none;stroke:#000080;" points="347,510 353,495 357,510 347,510"/></g><!-- 1168046509 --><g id="node14" class="node"><title>1168046509</title><polygon style="fill:#ffffcc;stroke:#ffffcc;" points="366,605 366,555 522,555 522,605 366,605"/><a xlink:href="platform%3A%2Fresource%2FRepository%2Fmgiml%2Fmgiml.uml%23_P7HbYOVfEeGdWtr&#45;mkIx7g" xlink:title="UnitOfMeasureHeader"><clipPath id="mypathfile:/C:/Program%20Files/Eclipse_indigo/configuration/org.eclipse.osgi/bundles/953/1/.cp/icons/full/obj16/Class.gif1168046509"><polygon points="383,558 367,558 367,575 383,575 383,558 "/></clipPath><image xlink:href="file:/C:/Program%20Files/Eclipse_indigo/configuration/org.eclipse.osgi/bundles/953/1/.cp/icons/full/obj16/Class.gif" width="16px" height="17px" preserveAspectRatio="xMidYMid meet" x="367" y="558" clip-path="url(#mypathfile:/C:/Program%20Files/Eclipse_indigo/configuration/org.eclipse.osgi/bundles/953/1/.cp/icons/full/obj16/Class.gif1168046509)"/><text text-anchor="middle" x="452" y="571" style="font-family:Arial;font-size:13.00;">UnitOfMeasureHeader</text><text text-anchor="middle" x="444" y="586" style="font-family:Arial;font-size:10.00;">(from table)</text><polygon style="fill:none;stroke:#a30036;" points="366,590 366,555 522,555 522,590 366,590"/></a><text text-anchor="middle" x="444" y="601" style="font-family:Arial;font-size:11.00;"> </text><polygon style="fill:none;stroke:#a30036;" points="366,605 366,590 522,590 522,605 366,605"/></g><!-- 1755590660&#45;&gt;1168046509 --><g id="edge12" class="edge"><title>1755590660&#45;&gt;1168046509</title><path style="fill:none;stroke:#000080;" d="M385,507C398,523 412,541 424,555"/><polygon style="fill:none;stroke:#000080;" points="381,510 376,495 389,504 381,510"/></g><!-- 1581783443 --><g id="node15" class="node"><title>1581783443</title><polygon style="fill:#ffffcc;stroke:#ffffcc;" points="540,605 540,555 648,555 648,605 540,605"/><a xlink:href="platform%3A%2Fresource%2FRepository%2Fmgiml%2Fmgiml.uml%23_jo4mgOVfEeGdWtr&#45;mkIx7g" xlink:title="EmptyColumn"><clipPath id="mypathfile:/C:/Program%20Files/Eclipse_indigo/configuration/org.eclipse.osgi/bundles/953/1/.cp/icons/full/obj16/Class.gif1581783443"><polygon points="557,558 541,558 541,575 557,575 557,558 "/></clipPath><image xlink:href="file:/C:/Program%20Files/Eclipse_indigo/configuration/org.eclipse.osgi/bundles/953/1/.cp/icons/full/obj16/Class.gif" width="16px" height="17px" preserveAspectRatio="xMidYMid meet" x="541" y="558" clip-path="url(#mypathfile:/C:/Program%20Files/Eclipse_indigo/configuration/org.eclipse.osgi/bundles/953/1/.cp/icons/full/obj16/Class.gif1581783443)"/><text text-anchor="middle" x="602" y="571" style="font-family:Arial;font-size:13.00;">EmptyColumn</text><text text-anchor="middle" x="594" y="586" style="font-family:Arial;font-size:10.00;">(from table)</text><polygon style="fill:none;stroke:#a30036;" points="540,590 540,555 648,555 648,590 540,590"/></a><text text-anchor="middle" x="594" y="601" style="font-family:Arial;font-size:11.00;"> </text><polygon style="fill:none;stroke:#a30036;" points="540,605 540,590 648,590 648,605 540,605"/></g><!-- 1755590660&#45;&gt;1581783443 --><g id="edge14" class="edge"><title>1755590660&#45;&gt;1581783443</title><path style="fill:none;stroke:#000080;" d="M405,492C444,510 499,536 540,555"/><polygon style="fill:none;stroke:#000080;" points="403,497 391,486 407,487 403,497"/></g><!-- 980072659 --><g id="node16" class="node"><title>980072659</title><polygon style="fill:#ffffcc;stroke:#ffffcc;" points="696,877 696,827 770,827 770,877 696,877"/><a xlink:href="platform%3A%2Fresource%2FRepository%2Fmgiml%2Fmgiml.uml%23_xyfgkOJhEeG3p4NxXjMbqA" xlink:title="Cell"><clipPath id="mypathfile:/C:/Program%20Files/Eclipse_indigo/configuration/org.eclipse.osgi/bundles/953/1/.cp/icons/full/obj16/Class.gif980072659"><polygon points="713,830 697,830 697,847 713,847 713,830 "/></clipPath><image xlink:href="file:/C:/Program%20Files/Eclipse_indigo/configuration/org.eclipse.osgi/bundles/953/1/.cp/icons/full/obj16/Class.gif" width="16px" height="17px" preserveAspectRatio="xMidYMid meet" x="697" y="830" clip-path="url(#mypathfile:/C:/Program%20Files/Eclipse_indigo/configuration/org.eclipse.osgi/bundles/953/1/.cp/icons/full/obj16/Class.gif980072659)"/><text text-anchor="middle" x="742" y="843" style="font-family:Arial;font-size:13.00;">Cell</text><text text-anchor="middle" x="733" y="858" style="font-family:Arial;font-size:10.00;">(from table)</text><polygon style="fill:none;stroke:#a30036;" points="696,862 696,827 770,827 770,862 696,862"/></a><a xlink:href="platform%3A%2Fresource%2FRepository%2Fmgiml%2Fmgiml.uml%23_GWd68OJiEeG3p4NxXjMbqA" xlink:title="value"><text text-anchor="middle" x="733" y="873" style="font-family:Arial;font-size:11.00;">value : double</text></a><polygon style="fill:none;stroke:#a30036;" points="696,877 696,862 770,862 770,877 696,877"/></g><!-- 1731468446&#45;&gt;980072659 --><g id="edge30" class="edge"><title>1731468446&#45;&gt;980072659</title><a xlink:href="platform%3A%2Fresource%2FRepository%2Fmgiml%2Fmgiml.uml%23_RD&#45;&#45;kOV4EeGdWtr&#45;mkIx7g" xlink:title="cell\n1..1"><path style="fill:none;stroke:#a30036;" d="M733,779C733,791 733,805 733,817"/><polygon style="fill:#a30036;stroke:#a30036;" points="733,779 737,773 733,767 729,773 733,779"/><polygon style="fill:#a30036;stroke:#a30036;" points="733,827 738,817 733,824 733,817 733,824 729,817 733,827 733,827"/><text text-anchor="middle" x="741" y="794" style="font-family:Arial;font-size:10.00;">cell</text><text text-anchor="middle" x="741" y="806" style="font-family:Arial;font-size:10.00;">1..1</text></a></g><!-- 225412622&#45;&gt;1731468446 --><g id="edge32" class="edge"><title>225412622&#45;&gt;1731468446</title><a xlink:href="platform%3A%2Fresource%2FRepository%2Fmgiml%2Fmgiml.uml%23_A&#45;HHMOV4EeGdWtr&#45;mkIx7g" xlink:title="coordinates\n1..*"><path style="fill:none;stroke:#a30036;" d="M697,617C696,635 696,655 701,673 702,676 703,679 704,682"/><polygon style="fill:none;stroke:#a30036;" points="697,617 701,611 698,605 694,611 697,617"/><polygon style="fill:#a30036;stroke:#a30036;" points="708,691 708,680 707,688 704,682 707,688 700,684 708,691 708,691"/><text text-anchor="middle" x="727" y="645" style="font-family:Arial;font-size:10.00;">coordinates</text><text text-anchor="middle" x="727" y="657" style="font-family:Arial;font-size:10.00;">1..*</text></a></g><!-- 254746698 --><g id="node17" class="node"><title>254746698</title><polygon style="fill:#ffffcc;stroke:#ffffcc;" points="168,877 168,827 290,827 290,877 168,877"/><a xlink:href="platform%3A%2Fresource%2FRepository%2Fmgiml%2Fmgiml.uml%23_ANvvsNwAEeGylJ60vDoYdA" xlink:title="MaterialProperty"><clipPath id="mypathfile:/C:/Program%20Files/Eclipse_indigo/configuration/org.eclipse.osgi/bundles/953/1/.cp/icons/full/obj16/Class.gif254746698"><polygon points="185,830 169,830 169,847 185,847 185,830 "/></clipPath><image xlink:href="file:/C:/Program%20Files/Eclipse_indigo/configuration/org.eclipse.osgi/bundles/953/1/.cp/icons/full/obj16/Class.gif" width="16px" height="17px" preserveAspectRatio="xMidYMid meet" x="169" y="830" clip-path="url(#mypathfile:/C:/Program%20Files/Eclipse_indigo/configuration/org.eclipse.osgi/bundles/953/1/.cp/icons/full/obj16/Class.gif254746698)"/><text text-anchor="middle" x="237" y="843" style="font-family:Arial;font-size:13.00;">MaterialProperty</text><text text-anchor="middle" x="229" y="858" style="font-family:Arial;font-size:10.00;">(from mgiml)</text><polygon style="fill:none;stroke:#a30036;" points="168,862 168,827 290,827 290,862 168,862"/></a><a xlink:href="platform%3A%2Fresource%2FRepository%2Fmgiml%2Fmgiml.uml%23_C4CywNwAEeGylJ60vDoYdA" xlink:title="name"><text text-anchor="middle" x="203" y="873" style="font-family:Arial;font-size:11.00;">name : string</text></a><polygon style="fill:none;stroke:#a30036;" points="168,877 168,862 290,862 290,877 168,877"/></g><!-- 1164188087&#45;&gt;254746698 --><g id="edge34" class="edge"><title>1164188087&#45;&gt;254746698</title><a xlink:href="platform%3A%2Fresource%2FRepository%2Fmgiml%2Fmgiml.uml%23_KvuYsOYcEeGUB4q_V543&#45;w" xlink:title="rowKey\n0..1"><path style="fill:none;stroke:#a30036;" d="M116,761C138,780 167,803 190,821"/><polygon style="fill:#a30036;stroke:#a30036;" points="116,761 113,754 106,754 109,761 116,761"/><polygon style="fill:#a30036;stroke:#a30036;" points="198,827 193,817 196,825 190,821 196,825 187,825 198,827 198,827"/><text text-anchor="middle" x="188" y="794" style="font-family:Arial;font-size:10.00;">rowKey</text><text text-anchor="middle" x="188" y="806" style="font-family:Arial;font-size:10.00;">0..1</text></a></g><!-- 1231054393&#45;&gt;1164188087 --><g id="edge36" class="edge"><title>1231054393&#45;&gt;1164188087</title><a xlink:href="platform%3A%2Fresource%2FRepository%2Fmgiml%2Fmgiml.uml%23_d6GJoOVdEeGdWtr&#45;mkIx7g" xlink:title="rowKey\n1..1"><path style="fill:none;stroke:#a30036;" d="M99,617C94,641 87,671 82,694"/><polygon style="fill:#a30036;stroke:#a30036;" points="99,617 104,612 102,605 97,610 99,617"/><polygon style="fill:#a30036;stroke:#a30036;" points="80,704 86,695 81,701 82,694 81,701 78,693 80,704 80,704"/><text text-anchor="middle" x="116" y="645" style="font-family:Arial;font-size:10.00;">rowKey</text><text text-anchor="middle" x="116" y="657" style="font-family:Arial;font-size:10.00;">1..1</text></a></g><!-- 1170090351 --><g id="node18" class="node"><title>1170090351</title><polygon style="fill:#ffffcc;stroke:#ffffcc;" points="132,754 132,704 260,704 260,754 132,754"/><a xlink:href="platform%3A%2Fresource%2FRepository%2Fmgiml%2Fmgiml.uml%23_nFAg8NwQEeGylJ60vDoYdA" xlink:title="ChemicalElement"><clipPath id="mypathfile:/C:/Program%20Files/Eclipse_indigo/configuration/org.eclipse.osgi/bundles/953/1/.cp/icons/full/obj16/Class.gif1170090351"><polygon points="149,707 133,707 133,724 149,724 149,707 "/></clipPath><image xlink:href="file:/C:/Program%20Files/Eclipse_indigo/configuration/org.eclipse.osgi/bundles/953/1/.cp/icons/full/obj16/Class.gif" width="16px" height="17px" preserveAspectRatio="xMidYMid meet" x="133" y="707" clip-path="url(#mypathfile:/C:/Program%20Files/Eclipse_indigo/configuration/org.eclipse.osgi/bundles/953/1/.cp/icons/full/obj16/Class.gif1170090351)"/><text text-anchor="middle" x="204" y="720" style="font-family:Arial;font-size:13.00;">ChemicalElement</text><text text-anchor="middle" x="196" y="735" style="font-family:Arial;font-size:10.00;">(from mgiml)</text><polygon style="fill:none;stroke:#a30036;" points="132,739 132,704 260,704 260,739 132,739"/></a><a xlink:href="platform%3A%2Fresource%2FRepository%2Fmgiml%2Fmgiml.uml%23_ofCO8NwQEeGylJ60vDoYdA" xlink:title="chemicalSymbol"><text text-anchor="middle" x="193" y="750" style="font-family:Arial;font-size:11.00;">chemicalSymbol : string</text></a><polygon style="fill:none;stroke:#a30036;" points="132,754 132,739 260,739 260,754 132,754"/></g><!-- 2047508077&#45;&gt;1170090351 --><g id="edge38" class="edge"><title>2047508077&#45;&gt;1170090351</title><a xlink:href="platform%3A%2Fresource%2FRepository%2Fmgiml%2Fmgiml.uml%23_uolqwOVeEeGdWtr&#45;mkIx7g" xlink:title="chemicalElement\n1..1"><path style="fill:none;stroke:#a30036;" d="M197,614C195,617 193,620 192,623 182,645 183,673 187,694"/><polygon style="fill:#a30036;stroke:#a30036;" points="198,613 205,612 206,605 199,606 198,613"/><polygon style="fill:#a30036;stroke:#a30036;" points="189,704 191,693 188,701 187,694 188,701 183,695 189,704 189,704"/><text text-anchor="middle" x="234" y="645" style="font-family:Arial;font-size:10.00;">chemicalElement</text><text text-anchor="middle" x="234" y="657" style="font-family:Arial;font-size:10.00;">1..1</text></a></g><!-- 1457122431&#45;&gt;254746698 --><g id="edge40" class="edge"><title>1457122431&#45;&gt;254746698</title><a xlink:href="platform%3A%2Fresource%2FRepository%2Fmgiml%2Fmgiml.uml%23_DJN2MOVfEeGdWtr&#45;mkIx7g" xlink:title="materialProperty\n1..1"><path style="fill:none;stroke:#a30036;" d="M311,683C309,685 307,688 305,691 304,693 267,771 245,818"/><polygon style="fill:#a30036;stroke:#a30036;" points="311,683 318,680 318,673 311,676 311,683"/><polygon style="fill:#a30036;stroke:#a30036;" points="241,827 249,820 242,824 245,818 242,824 241,816 241,827 241,827"/><text text-anchor="middle" x="346" y="726" style="font-family:Arial;font-size:10.00;">materialProperty</text><text text-anchor="middle" x="346" y="738" style="font-family:Arial;font-size:10.00;">1..1</text></a></g><!-- 1384618202 --><g id="node19" class="node"><title>1384618202</title><polygon style="fill:#ffffcc;stroke:#ffffcc;" points="389,754 389,704 503,704 503,754 389,754"/><a xlink:href="platform%3A%2Fresource%2FRepository%2Fmgiml%2Fmgiml.uml%23_fad_gNwCEeGylJ60vDoYdA" xlink:title="UnitOfMeasure"><clipPath id="mypathfile:/C:/Program%20Files/Eclipse_indigo/configuration/org.eclipse.osgi/bundles/953/1/.cp/icons/full/obj16/Class.gif1384618202"><polygon points="406,707 390,707 390,724 406,724 406,707 "/></clipPath><image xlink:href="file:/C:/Program%20Files/Eclipse_indigo/configuration/org.eclipse.osgi/bundles/953/1/.cp/icons/full/obj16/Class.gif" width="16px" height="17px" preserveAspectRatio="xMidYMid meet" x="390" y="707" clip-path="url(#mypathfile:/C:/Program%20Files/Eclipse_indigo/configuration/org.eclipse.osgi/bundles/953/1/.cp/icons/full/obj16/Class.gif1384618202)"/><text text-anchor="middle" x="454" y="720" style="font-family:Arial;font-size:13.00;">UnitOfMeasure</text><text text-anchor="middle" x="446" y="735" style="font-family:Arial;font-size:10.00;">(from mgiml)</text><polygon style="fill:none;stroke:#a30036;" points="389,739 389,704 503,704 503,739 389,739"/></a><a xlink:href="platform%3A%2Fresource%2FRepository%2Fmgiml%2Fmgiml.uml%23_gxbycNwCEeGylJ60vDoYdA" xlink:title="name"><text text-anchor="middle" x="424" y="750" style="font-family:Arial;font-size:11.00;">name : string</text></a><polygon style="fill:none;stroke:#a30036;" points="389,754 389,739 503,739 503,754 389,754"/></g><!-- 1168046509&#45;&gt;1384618202 --><g id="edge42" class="edge"><title>1168046509&#45;&gt;1384618202</title><a xlink:href="platform%3A%2Fresource%2FRepository%2Fmgiml%2Fmgiml.uml%23_R7Nq4OVfEeGdWtr&#45;mkIx7g" xlink:title="unitOfMeasure\n1..1"><path style="fill:none;stroke:#a30036;" d="M444,617C445,640 445,671 446,694"/><polygon style="fill:#a30036;stroke:#a30036;" points="444,617 448,611 444,605 440,611 444,617"/><polygon style="fill:#a30036;stroke:#a30036;" points="446,704 451,694 446,701 446,694 446,701 442,694 446,704 446,704"/><text text-anchor="middle" x="479" y="645" style="font-family:Arial;font-size:10.00;">unitOfMeasure</text><text text-anchor="middle" x="479" y="657" style="font-family:Arial;font-size:10.00;">1..1</text></a></g><!-- 1968559231 --><g id="node20" class="node"><title>1968559231</title><polygon style="fill:#ffffcc;stroke:#ffffcc;" points="375,877 375,827 517,827 517,877 375,877"/><a xlink:href="platform%3A%2Fresource%2FRepository%2Fmgiml%2Fmgiml.uml%23_P0SJQNwMEeGylJ60vDoYdA" xlink:title="UnitOfMeasureType"><clipPath id="mypathfile:/C:/Program%20Files/Eclipse_indigo/configuration/org.eclipse.osgi/bundles/953/1/.cp/icons/full/obj16/Class.gif1968559231"><polygon points="392,830 376,830 376,847 392,847 392,830 "/></clipPath><image xlink:href="file:/C:/Program%20Files/Eclipse_indigo/configuration/org.eclipse.osgi/bundles/953/1/.cp/icons/full/obj16/Class.gif" width="16px" height="17px" preserveAspectRatio="xMidYMid meet" x="376" y="830" clip-path="url(#mypathfile:/C:/Program%20Files/Eclipse_indigo/configuration/org.eclipse.osgi/bundles/953/1/.cp/icons/full/obj16/Class.gif1968559231)"/><text text-anchor="middle" x="454" y="843" style="font-family:Arial;font-size:13.00;">UnitOfMeasureType</text><text text-anchor="middle" x="446" y="858" style="font-family:Arial;font-size:10.00;">(from mgiml)</text><polygon style="fill:none;stroke:#a30036;" points="375,862 375,827 517,827 517,862 375,862"/></a><a xlink:href="platform%3A%2Fresource%2FRepository%2Fmgiml%2Fmgiml.uml%23_fhsdUNwMEeGylJ60vDoYdA" xlink:title="name"><text text-anchor="middle" x="410" y="873" style="font-family:Arial;font-size:11.00;">name : string</text></a><polygon style="fill:none;stroke:#a30036;" points="375,877 375,862 517,862 517,877 375,877"/></g><!-- 1384618202&#45;&gt;1968559231 --><g id="edge44" class="edge"><title>1384618202&#45;&gt;1968559231</title><a xlink:href="platform%3A%2Fresource%2FRepository%2Fmgiml%2Fmgiml.uml%23_U9Cy0NwMEeGylJ60vDoYdA" xlink:title="unitOfMeasureType\n1..1"><path style="fill:none;stroke:#a30036;" d="M446,766C446,782 446,801 446,817"/><polygon style="fill:#a30036;stroke:#a30036;" points="446,766 450,760 446,754 442,760 446,766"/><polygon style="fill:#a30036;stroke:#a30036;" points="446,827 451,817 446,824 446,817 446,824 442,817 446,827 446,827"/><text text-anchor="middle" x="490" y="794" style="font-family:Arial;font-size:10.00;">unitOfMeasureType</text><text text-anchor="middle" x="490" y="806" style="font-family:Arial;font-size:10.00;">1..1</text></a></g></g></svg>