<?xml version="1.0" encoding="UTF-8" standalone="no"?><!DOCTYPE svg PUBLIC "-//W3C//DTD SVG 1.0//EN" "http://www.w3.org/TR/2001/REC-SVG-20010904/DTD/svg10.dtd" [ <!ATTLIST svg xmlns:xlink CDATA #FIXED "http://www.w3.org/1999/xlink">]><!-- Generated by dot version 2.7.20051103.0540 (Thu Nov  3 05:48:38 UTC 2005)     For user: Bill Gates --><!-- Title: uml Pages: 1 --><svg width="289pt" height="292pt" viewBox = "0 0 289 292" xmlns="http://www.w3.org/2000/svg" xmlns:xlink="http://www.w3.org/1999/xlink"><g id="graph0" class="graph" style="font-family:Times-Roman;font-size:14.00;"><title>uml</title><polygon style="fill:white;stroke:white;" points="-1,293 -1,-1 290,-1 290,293 -1,293"/><!-- 1569508204 --><g id="node1" class="node"><title>1569508204</title><polygon style="fill:#ffffcc;stroke:#ffffcc;" points="76,55 76,5 152,5 152,55 76,55"/><a xlink:href="platform%3A%2Fresource%2FRepository%2Fmgiml%2Fmgiml.uml%23_Ra32Idc2EeGqj6dbAaQw_w" xlink:title="Quantity"><clipPath id="mypathfile:/C:/Program%20Files/Eclipse_indigo/configuration/org.eclipse.osgi/bundles/953/1/.cp/icons/full/obj16/Class.gif1569508204"><polygon points="93,8 77,8 77,25 93,25 93,8 "/></clipPath><image xlink:href="file:/C:/Program%20Files/Eclipse_indigo/configuration/org.eclipse.osgi/bundles/953/1/.cp/icons/full/obj16/Class.gif" width="16px" height="17px" preserveAspectRatio="xMidYMid meet" x="77" y="8" clip-path="url(#mypathfile:/C:/Program%20Files/Eclipse_indigo/configuration/org.eclipse.osgi/bundles/953/1/.cp/icons/full/obj16/Class.gif1569508204)"/><text text-anchor="middle" x="123" y="21" style="font-family:Arial;font-size:13.00;">Quantity</text><text text-anchor="middle" x="114" y="36" style="font-family:Arial;font-size:10.00;">(from mgiml)</text><polygon style="fill:none;stroke:#a30036;" points="76,40 76,5 152,5 152,40 76,40"/></a><a xlink:href="platform%3A%2Fresource%2FRepository%2Fmgiml%2Fmgiml.uml%23_Ra32Itc2EeGqj6dbAaQw_w" xlink:title="value"><text text-anchor="middle" x="113" y="51" style="font-family:Arial;font-size:11.00;">value : double</text></a><polygon style="fill:none;stroke:#a30036;" points="76,55 76,40 152,40 152,55 76,55"/></g><!-- 1648552857 --><g id="node2" class="node"><title>1648552857</title><polygon style="fill:#ffffcc;stroke:#ffffcc;" points="5,177 5,115 121,115 121,177 5,177"/><a xlink:href="platform%3A%2Fresource%2FRepository%2Fmgiml%2Fmgiml.uml%23_L1I1MNsyEeG4nL&#45;0zQ4x_w" xlink:title="Uncertainty"><clipPath id="mypathfile:/C:/Program%20Files/Eclipse_indigo/configuration/org.eclipse.osgi/bundles/953/1/.cp/icons/full/obj16/Class.gif1648552857"><polygon points="22,118 6,118 6,135 22,135 22,118 "/></clipPath><image xlink:href="file:/C:/Program%20Files/Eclipse_indigo/configuration/org.eclipse.osgi/bundles/953/1/.cp/icons/full/obj16/Class.gif" width="16px" height="17px" preserveAspectRatio="xMidYMid meet" x="6" y="118" clip-path="url(#mypathfile:/C:/Program%20Files/Eclipse_indigo/configuration/org.eclipse.osgi/bundles/953/1/.cp/icons/full/obj16/Class.gif1648552857)"/><text text-anchor="middle" x="71" y="131" style="font-family:Arial;font-size:13.00;">Uncertainty</text><text text-anchor="middle" x="63" y="146" style="font-family:Arial;font-size:10.00;">(from mgiml)</text><polygon style="fill:none;stroke:#a30036;" points="5,150 5,115 121,115 121,150 5,150"/></a><a xlink:href="platform%3A%2Fresource%2FRepository%2Fmgiml%2Fmgiml.uml%23_iNdiENsyEeG4nL&#45;0zQ4x_w" xlink:title="type"><text text-anchor="middle" x="63" y="161" style="font-family:Arial;font-size:11.00;">type : UncertaintyType</text></a><a xlink:href="platform%3A%2Fresource%2FRepository%2Fmgiml%2Fmgiml.uml%23_q&#45;IGcNsyEeG4nL&#45;0zQ4x_w" xlink:title="value"><text text-anchor="middle" x="42" y="173" style="font-family:Arial;font-size:11.00;">value : double</text></a><polygon style="fill:none;stroke:#a30036;" points="5,177 5,150 121,150 121,177 5,177"/></g><!-- 1569508204&#45;&gt;1648552857 --><g id="edge2" class="edge"><title>1569508204&#45;&gt;1648552857</title><a xlink:href="platform%3A%2Fresource%2FRepository%2Fmgiml%2Fmgiml.uml%23_wlYC0NsyEeG4nL&#45;0zQ4x_w" xlink:title="uncertainty\n0..1"><path style="fill:none;stroke:#a30036;" d="M97,66C96,68 95,71 94,73 89,84 84,95 80,106"/><polygon style="fill:#a30036;stroke:#a30036;" points="97,66 103,62 102,55 96,59 97,66"/><polygon style="fill:#a30036;stroke:#a30036;" points="76,115 84,108 77,112 80,106 77,112 76,104 76,115 76,115"/><text text-anchor="middle" x="119" y="82" style="font-family:Arial;font-size:10.00;">uncertainty</text><text text-anchor="middle" x="119" y="94" style="font-family:Arial;font-size:10.00;">0..1</text></a></g><!-- 215527594 --><g id="node3" class="node"><title>215527594</title><polygon style="fill:#ffffcc;stroke:#ffffcc;" points="139,171 139,121 253,121 253,171 139,171"/><a xlink:href="platform%3A%2Fresource%2FRepository%2Fmgiml%2Fmgiml.uml%23_fad_gNwCEeGylJ60vDoYdA" xlink:title="UnitOfMeasure"><clipPath id="mypathfile:/C:/Program%20Files/Eclipse_indigo/configuration/org.eclipse.osgi/bundles/953/1/.cp/icons/full/obj16/Class.gif215527594"><polygon points="156,124 140,124 140,141 156,141 156,124 "/></clipPath><image xlink:href="file:/C:/Program%20Files/Eclipse_indigo/configuration/org.eclipse.osgi/bundles/953/1/.cp/icons/full/obj16/Class.gif" width="16px" height="17px" preserveAspectRatio="xMidYMid meet" x="140" y="124" clip-path="url(#mypathfile:/C:/Program%20Files/Eclipse_indigo/configuration/org.eclipse.osgi/bundles/953/1/.cp/icons/full/obj16/Class.gif215527594)"/><text text-anchor="middle" x="204" y="137" style="font-family:Arial;font-size:13.00;">UnitOfMeasure</text><text text-anchor="middle" x="196" y="152" style="font-family:Arial;font-size:10.00;">(from mgiml)</text><polygon style="fill:none;stroke:#a30036;" points="139,156 139,121 253,121 253,156 139,156"/></a><a xlink:href="platform%3A%2Fresource%2FRepository%2Fmgiml%2Fmgiml.uml%23_gxbycNwCEeGylJ60vDoYdA" xlink:title="name"><text text-anchor="middle" x="174" y="167" style="font-family:Arial;font-size:11.00;">name : string</text></a><polygon style="fill:none;stroke:#a30036;" points="139,171 139,156 253,156 253,171 139,171"/></g><!-- 1569508204&#45;&gt;215527594 --><g id="edge4" class="edge"><title>1569508204&#45;&gt;215527594</title><a xlink:href="platform%3A%2Fresource%2FRepository%2Fmgiml%2Fmgiml.uml%23_tDTzwNwCEeGylJ60vDoYdA" xlink:title="unit\n1..1"><path style="fill:none;stroke:#a30036;" d="M139,65C150,80 162,97 172,112"/><polygon style="fill:#a30036;stroke:#a30036;" points="139,65 139,58 132,55 132,62 139,65"/><polygon style="fill:#a30036;stroke:#a30036;" points="178,121 176,110 176,119 172,113 176,119 169,115 178,121 178,121"/><text text-anchor="middle" x="167" y="82" style="font-family:Arial;font-size:10.00;">unit</text><text text-anchor="middle" x="167" y="94" style="font-family:Arial;font-size:10.00;">1..1</text></a></g><!-- 2025853572 --><g id="node4" class="node"><title>2025853572</title><polygon style="fill:#ffffcc;stroke:#ffffcc;" points="125,287 125,237 267,237 267,287 125,287"/><a xlink:href="platform%3A%2Fresource%2FRepository%2Fmgiml%2Fmgiml.uml%23_P0SJQNwMEeGylJ60vDoYdA" xlink:title="UnitOfMeasureType"><clipPath id="mypathfile:/C:/Program%20Files/Eclipse_indigo/configuration/org.eclipse.osgi/bundles/953/1/.cp/icons/full/obj16/Class.gif2025853572"><polygon points="142,240 126,240 126,257 142,257 142,240 "/></clipPath><image xlink:href="file:/C:/Program%20Files/Eclipse_indigo/configuration/org.eclipse.osgi/bundles/953/1/.cp/icons/full/obj16/Class.gif" width="16px" height="17px" preserveAspectRatio="xMidYMid meet" x="126" y="240" clip-path="url(#mypathfile:/C:/Program%20Files/Eclipse_indigo/configuration/org.eclipse.osgi/bundles/953/1/.cp/icons/full/obj16/Class.gif2025853572)"/><text text-anchor="middle" x="204" y="253" style="font-family:Arial;font-size:13.00;">UnitOfMeasureType</text><text text-anchor="middle" x="196" y="268" style="font-family:Arial;font-size:10.00;">(from mgiml)</text><polygon style="fill:none;stroke:#a30036;" points="125,272 125,237 267,237 267,272 125,272"/></a><a xlink:href="platform%3A%2Fresource%2FRepository%2Fmgiml%2Fmgiml.uml%23_fhsdUNwMEeGylJ60vDoYdA" xlink:title="name"><text text-anchor="middle" x="160" y="283" style="font-family:Arial;font-size:11.00;">name : string</text></a><polygon style="fill:none;stroke:#a30036;" points="125,287 125,272 267,272 267,287 125,287"/></g><!-- 215527594&#45;&gt;2025853572 --><g id="edge6" class="edge"><title>215527594&#45;&gt;2025853572</title><a xlink:href="platform%3A%2Fresource%2FRepository%2Fmgiml%2Fmgiml.uml%23_U9Cy0NwMEeGylJ60vDoYdA" xlink:title="unitOfMeasureType\n1..1"><path style="fill:none;stroke:#a30036;" d="M196,183C196,197 196,213 196,227"/><polygon style="fill:#a30036;stroke:#a30036;" points="196,183 200,177 196,171 192,177 196,183"/><polygon style="fill:#a30036;stroke:#a30036;" points="196,237 201,227 196,234 196,227 196,234 192,227 196,237 196,237"/><text text-anchor="middle" x="240" y="204" style="font-family:Arial;font-size:10.00;">unitOfMeasureType</text><text text-anchor="middle" x="240" y="216" style="font-family:Arial;font-size:10.00;">1..1</text></a></g></g></svg>